<mxfile host="Electron" modified="2024-04-19T11:22:51.254Z" agent="Mozilla/5.0 (Macintosh; Intel Mac OS X 10_15_7) AppleWebKit/537.36 (KHTML, like Gecko) draw.io/24.2.5 Chrome/120.0.6099.109 Electron/28.1.0 Safari/537.36" etag="R5Q60kOwfkvMo8wUuMcO" version="24.2.5" type="device" pages="6">
  <diagram name="1. Convert diagram to JSON" id="NY5vYRHHy_uk7nUXD4dG">
    <mxGraphModel dx="1100" dy="696" grid="1" gridSize="10" guides="1" tooltips="1" connect="1" arrows="1" fold="1" page="1" pageScale="1" pageWidth="850" pageHeight="1100" math="0" shadow="0">
      <root>
        <mxCell id="0" />
        <mxCell id="1" parent="0" />
        <mxCell id="-ETOoVRn2a0Skz829GHp-8" style="edgeStyle=orthogonalEdgeStyle;rounded=0;orthogonalLoop=1;jettySize=auto;html=1;entryX=0;entryY=0.5;entryDx=0;entryDy=0;" edge="1" parent="1" source="-ETOoVRn2a0Skz829GHp-1" target="-ETOoVRn2a0Skz829GHp-6">
          <mxGeometry relative="1" as="geometry" />
        </mxCell>
        <mxCell id="-ETOoVRn2a0Skz829GHp-1" value=".drawio" style="shape=cylinder3;whiteSpace=wrap;html=1;boundedLbl=1;backgroundOutline=1;size=15;" vertex="1" parent="1">
          <mxGeometry x="220" y="200" width="60" height="80" as="geometry" />
        </mxCell>
        <mxCell id="-ETOoVRn2a0Skz829GHp-2" value="DPL (draw.io editor)" style="rounded=1;whiteSpace=wrap;html=1;" vertex="1" parent="1">
          <mxGeometry x="40" y="210" width="120" height="60" as="geometry" />
        </mxCell>
        <mxCell id="-ETOoVRn2a0Skz829GHp-3" style="edgeStyle=orthogonalEdgeStyle;rounded=0;orthogonalLoop=1;jettySize=auto;html=1;entryX=0;entryY=0.5;entryDx=0;entryDy=0;entryPerimeter=0;" edge="1" parent="1" source="-ETOoVRn2a0Skz829GHp-2" target="-ETOoVRn2a0Skz829GHp-1">
          <mxGeometry relative="1" as="geometry" />
        </mxCell>
        <mxCell id="-ETOoVRn2a0Skz829GHp-5" value=".json" style="shape=cylinder3;whiteSpace=wrap;html=1;boundedLbl=1;backgroundOutline=1;size=15;" vertex="1" parent="1">
          <mxGeometry x="520" y="200" width="60" height="80" as="geometry" />
        </mxCell>
        <mxCell id="-ETOoVRn2a0Skz829GHp-6" value="das2JSON" style="rounded=1;whiteSpace=wrap;html=1;" vertex="1" parent="1">
          <mxGeometry x="340" y="210" width="120" height="60" as="geometry" />
        </mxCell>
        <mxCell id="-ETOoVRn2a0Skz829GHp-7" style="edgeStyle=orthogonalEdgeStyle;rounded=0;orthogonalLoop=1;jettySize=auto;html=1;entryX=0;entryY=0.5;entryDx=0;entryDy=0;entryPerimeter=0;" edge="1" parent="1" source="-ETOoVRn2a0Skz829GHp-6" target="-ETOoVRn2a0Skz829GHp-5">
          <mxGeometry relative="1" as="geometry" />
        </mxCell>
      </root>
    </mxGraphModel>
  </diagram>
  <diagram id="eRqYm6ofQ_60UYpiAKEL" name="2. loader">
    <mxGraphModel dx="1100" dy="696" grid="1" gridSize="10" guides="1" tooltips="1" connect="1" arrows="1" fold="1" page="1" pageScale="1" pageWidth="850" pageHeight="1100" math="0" shadow="0">
      <root>
        <mxCell id="0" />
        <mxCell id="1" parent="0" />
        <mxCell id="MzxIK3cKPJ3QhuDx2cjz-1" style="edgeStyle=orthogonalEdgeStyle;rounded=0;orthogonalLoop=1;jettySize=auto;html=1;entryX=0;entryY=0.5;entryDx=0;entryDy=0;" edge="1" parent="1" source="MzxIK3cKPJ3QhuDx2cjz-2" target="MzxIK3cKPJ3QhuDx2cjz-6">
          <mxGeometry relative="1" as="geometry" />
        </mxCell>
        <mxCell id="MzxIK3cKPJ3QhuDx2cjz-2" value=".json" style="shape=cylinder3;whiteSpace=wrap;html=1;boundedLbl=1;backgroundOutline=1;size=15;" vertex="1" parent="1">
          <mxGeometry x="220" y="200" width="60" height="80" as="geometry" />
        </mxCell>
        <mxCell id="MzxIK3cKPJ3QhuDx2cjz-5" value="dictionary of templates" style="shape=cylinder3;whiteSpace=wrap;html=1;boundedLbl=1;backgroundOutline=1;size=15;" vertex="1" parent="1">
          <mxGeometry x="520" y="200" width="60" height="80" as="geometry" />
        </mxCell>
        <mxCell id="MzxIK3cKPJ3QhuDx2cjz-6" value="loader" style="rounded=1;whiteSpace=wrap;html=1;" vertex="1" parent="1">
          <mxGeometry x="340" y="210" width="120" height="60" as="geometry" />
        </mxCell>
        <mxCell id="MzxIK3cKPJ3QhuDx2cjz-7" style="edgeStyle=orthogonalEdgeStyle;rounded=0;orthogonalLoop=1;jettySize=auto;html=1;entryX=0;entryY=0.5;entryDx=0;entryDy=0;entryPerimeter=0;" edge="1" parent="1" source="MzxIK3cKPJ3QhuDx2cjz-6" target="MzxIK3cKPJ3QhuDx2cjz-5">
          <mxGeometry relative="1" as="geometry" />
        </mxCell>
      </root>
    </mxGraphModel>
  </diagram>
  <diagram id="aQUx9tk-qyS10ff6FB7b" name="3. instantiate">
    <mxGraphModel dx="1100" dy="696" grid="1" gridSize="1" guides="1" tooltips="1" connect="1" arrows="1" fold="1" page="1" pageScale="1" pageWidth="850" pageHeight="1100" math="0" shadow="0">
      <root>
        <mxCell id="0" />
        <mxCell id="1" parent="0" />
        <mxCell id="5tUV26yEdHO98M0B-vXa-6" value="Instantiator" style="rounded=1;whiteSpace=wrap;html=1;" vertex="1" parent="1">
          <mxGeometry x="181" y="150" width="120" height="60" as="geometry" />
        </mxCell>
        <mxCell id="zvsK5lwy2zQuJ34e8Zl8-1" value="Instantiated Components" style="rounded=1;whiteSpace=wrap;html=1;fontFamily=Helvetica;fontSize=11;fontColor=default;labelBackgroundColor=default;verticalAlign=top;container=1;" vertex="1" parent="1">
          <mxGeometry x="361" y="40" width="380" height="280" as="geometry" />
        </mxCell>
        <mxCell id="zvsK5lwy2zQuJ34e8Zl8-3" value="" style="rounded=1;whiteSpace=wrap;html=1;fontFamily=Helvetica;fontSize=11;fontColor=#333333;labelBackgroundColor=default;dashed=1;dashPattern=1 4;fillColor=#f5f5f5;strokeColor=#666666;opacity=40;" vertex="1" parent="zvsK5lwy2zQuJ34e8Zl8-1">
          <mxGeometry x="200.55555555555554" y="107.6923076923077" width="168.88888888888886" height="161.53846153846152" as="geometry" />
        </mxCell>
        <mxCell id="zvsK5lwy2zQuJ34e8Zl8-2" value="" style="rounded=1;whiteSpace=wrap;html=1;fontFamily=Helvetica;fontSize=11;fontColor=#333333;labelBackgroundColor=default;dashed=1;dashPattern=1 4;fillColor=#f5f5f5;strokeColor=#666666;opacity=30;" vertex="1" parent="zvsK5lwy2zQuJ34e8Zl8-1">
          <mxGeometry y="43.07692307692307" width="379.99999999999994" height="236.9230769230769" as="geometry" />
        </mxCell>
        <mxCell id="zvsK5lwy2zQuJ34e8Zl8-4" value="" style="rounded=1;whiteSpace=wrap;html=1;fontFamily=Helvetica;fontSize=11;fontColor=#333333;labelBackgroundColor=default;dashed=1;dashPattern=1 4;fillColor=#f5f5f5;strokeColor=#666666;opacity=40;" vertex="1" parent="zvsK5lwy2zQuJ34e8Zl8-1">
          <mxGeometry x="10.555555555555554" y="107.6923076923077" width="168.88888888888886" height="161.53846153846152" as="geometry" />
        </mxCell>
        <mxCell id="zvsK5lwy2zQuJ34e8Zl8-5" value="" style="rounded=1;whiteSpace=wrap;html=1;fontFamily=Helvetica;fontSize=11;fontColor=#333333;labelBackgroundColor=default;dashed=1;dashPattern=1 4;fillColor=#f5f5f5;strokeColor=#666666;opacity=60;" vertex="1" parent="zvsK5lwy2zQuJ34e8Zl8-1">
          <mxGeometry x="211.1111111111111" y="172.3076923076923" width="147.77777777777777" height="86.15384615384615" as="geometry" />
        </mxCell>
        <mxCell id="zvsK5lwy2zQuJ34e8Zl8-6" value="" style="rounded=1;whiteSpace=wrap;html=1;fontFamily=Helvetica;fontSize=11;fontColor=#333333;labelBackgroundColor=default;dashed=1;dashPattern=1 4;opacity=60;fillColor=#f5f5f5;strokeColor=#666666;" vertex="1" parent="zvsK5lwy2zQuJ34e8Zl8-1">
          <mxGeometry x="21.111111111111107" y="172.3076923076923" width="147.77777777777777" height="86.15384615384615" as="geometry" />
        </mxCell>
        <mxCell id="zvsK5lwy2zQuJ34e8Zl8-7" style="edgeStyle=orthogonalEdgeStyle;rounded=1;orthogonalLoop=1;jettySize=auto;html=1;exitX=0.25;exitY=1;exitDx=0;exitDy=0;entryX=0.5;entryY=0;entryDx=0;entryDy=0;curved=0;opacity=30;fillColor=#d5e8d4;strokeColor=#82b366;" edge="1" parent="zvsK5lwy2zQuJ34e8Zl8-1" source="zvsK5lwy2zQuJ34e8Zl8-9" target="zvsK5lwy2zQuJ34e8Zl8-11">
          <mxGeometry relative="1" as="geometry" />
        </mxCell>
        <mxCell id="zvsK5lwy2zQuJ34e8Zl8-8" style="edgeStyle=orthogonalEdgeStyle;rounded=1;orthogonalLoop=1;jettySize=auto;html=1;exitX=0.5;exitY=0;exitDx=0;exitDy=0;entryX=0.75;entryY=1;entryDx=0;entryDy=0;curved=0;opacity=30;fillColor=#d5e8d4;strokeColor=#82b366;" edge="1" parent="zvsK5lwy2zQuJ34e8Zl8-1" source="zvsK5lwy2zQuJ34e8Zl8-13" target="zvsK5lwy2zQuJ34e8Zl8-9">
          <mxGeometry relative="1" as="geometry" />
        </mxCell>
        <mxCell id="zvsK5lwy2zQuJ34e8Zl8-9" value="" style="rounded=1;whiteSpace=wrap;html=1;fillColor=#0050ef;fontColor=#ffffff;strokeColor=#001DBC;opacity=30;" vertex="1" parent="zvsK5lwy2zQuJ34e8Zl8-1">
          <mxGeometry x="168.88888888888886" y="32.30769230769231" width="42.222222222222214" height="21.538461538461537" as="geometry" />
        </mxCell>
        <mxCell id="zvsK5lwy2zQuJ34e8Zl8-10" style="edgeStyle=orthogonalEdgeStyle;curved=0;rounded=1;orthogonalLoop=1;jettySize=auto;html=1;exitX=0.25;exitY=1;exitDx=0;exitDy=0;entryX=0.326;entryY=-0.01;entryDx=0;entryDy=0;strokeColor=#82b366;align=center;verticalAlign=middle;fontFamily=Helvetica;fontSize=11;fontColor=default;labelBackgroundColor=default;endArrow=classic;entryPerimeter=0;opacity=30;fillColor=#d5e8d4;" edge="1" parent="zvsK5lwy2zQuJ34e8Zl8-1" source="zvsK5lwy2zQuJ34e8Zl8-11" target="zvsK5lwy2zQuJ34e8Zl8-16">
          <mxGeometry relative="1" as="geometry">
            <Array as="points">
              <mxPoint x="127" y="137" />
              <mxPoint x="88" y="137" />
            </Array>
          </mxGeometry>
        </mxCell>
        <mxCell id="zvsK5lwy2zQuJ34e8Zl8-11" value="" style="rounded=1;whiteSpace=wrap;html=1;fillColor=#0050ef;fontColor=#ffffff;strokeColor=#001DBC;opacity=30;" vertex="1" parent="zvsK5lwy2zQuJ34e8Zl8-1">
          <mxGeometry x="116.11111111111109" y="96.92307692307692" width="42.222222222222214" height="21.538461538461537" as="geometry" />
        </mxCell>
        <mxCell id="sjuLfiEwDjnBNgfOu-Ea-1" style="edgeStyle=orthogonalEdgeStyle;curved=0;rounded=1;orthogonalLoop=1;jettySize=auto;html=1;exitX=0.25;exitY=1;exitDx=0;exitDy=0;entryX=0.25;entryY=0;entryDx=0;entryDy=0;strokeColor=#82b366;align=center;verticalAlign=middle;fontFamily=Helvetica;fontSize=11;fontColor=default;labelBackgroundColor=default;endArrow=classic;fillColor=#d5e8d4;opacity=30;" edge="1" parent="zvsK5lwy2zQuJ34e8Zl8-1" source="zvsK5lwy2zQuJ34e8Zl8-13" target="zvsK5lwy2zQuJ34e8Zl8-21">
          <mxGeometry relative="1" as="geometry">
            <Array as="points">
              <mxPoint x="232" y="144" />
              <mxPoint x="274" y="144" />
            </Array>
          </mxGeometry>
        </mxCell>
        <mxCell id="zvsK5lwy2zQuJ34e8Zl8-13" value="" style="rounded=1;whiteSpace=wrap;html=1;fillColor=#0050ef;fontColor=#ffffff;strokeColor=#001DBC;opacity=30;" vertex="1" parent="zvsK5lwy2zQuJ34e8Zl8-1">
          <mxGeometry x="221.66666666666663" y="96.92307692307692" width="42.222222222222214" height="21.538461538461537" as="geometry" />
        </mxCell>
        <mxCell id="zvsK5lwy2zQuJ34e8Zl8-14" style="edgeStyle=orthogonalEdgeStyle;rounded=1;orthogonalLoop=1;jettySize=auto;html=1;exitX=0.25;exitY=1;exitDx=0;exitDy=0;entryX=0.5;entryY=0;entryDx=0;entryDy=0;curved=0;opacity=30;fillColor=#d5e8d4;strokeColor=#82b366;" edge="1" parent="zvsK5lwy2zQuJ34e8Zl8-1" source="zvsK5lwy2zQuJ34e8Zl8-16" target="zvsK5lwy2zQuJ34e8Zl8-17">
          <mxGeometry relative="1" as="geometry" />
        </mxCell>
        <mxCell id="zvsK5lwy2zQuJ34e8Zl8-15" style="edgeStyle=orthogonalEdgeStyle;curved=0;rounded=1;orthogonalLoop=1;jettySize=auto;html=1;exitX=0.75;exitY=0;exitDx=0;exitDy=0;entryX=0.75;entryY=1;entryDx=0;entryDy=0;strokeColor=#82b366;align=center;verticalAlign=middle;fontFamily=Helvetica;fontSize=11;fontColor=default;labelBackgroundColor=default;endArrow=classic;opacity=30;fillColor=#d5e8d4;" edge="1" parent="zvsK5lwy2zQuJ34e8Zl8-1" source="zvsK5lwy2zQuJ34e8Zl8-16" target="zvsK5lwy2zQuJ34e8Zl8-11">
          <mxGeometry relative="1" as="geometry">
            <Array as="points">
              <mxPoint x="106" y="142" />
              <mxPoint x="148" y="142" />
            </Array>
          </mxGeometry>
        </mxCell>
        <mxCell id="zvsK5lwy2zQuJ34e8Zl8-16" value="" style="rounded=1;whiteSpace=wrap;html=1;fillColor=#0050ef;fontColor=#ffffff;strokeColor=#001DBC;opacity=30;" vertex="1" parent="zvsK5lwy2zQuJ34e8Zl8-1">
          <mxGeometry x="73.88888888888889" y="161.53846153846152" width="42.222222222222214" height="21.538461538461537" as="geometry" />
        </mxCell>
        <mxCell id="zvsK5lwy2zQuJ34e8Zl8-17" value="" style="rounded=1;whiteSpace=wrap;html=1;fillColor=#0050ef;fontColor=#ffffff;strokeColor=#001DBC;opacity=30;" vertex="1" parent="zvsK5lwy2zQuJ34e8Zl8-1">
          <mxGeometry x="31.66666666666666" y="226.15384615384613" width="42.222222222222214" height="21.538461538461537" as="geometry" />
        </mxCell>
        <mxCell id="zvsK5lwy2zQuJ34e8Zl8-18" style="edgeStyle=orthogonalEdgeStyle;curved=0;rounded=1;orthogonalLoop=1;jettySize=auto;html=1;exitX=0.5;exitY=0;exitDx=0;exitDy=0;entryX=0.75;entryY=1;entryDx=0;entryDy=0;strokeColor=#82b366;align=center;verticalAlign=middle;fontFamily=Helvetica;fontSize=11;fontColor=default;labelBackgroundColor=default;endArrow=classic;opacity=30;fillColor=#d5e8d4;" edge="1" parent="zvsK5lwy2zQuJ34e8Zl8-1" source="zvsK5lwy2zQuJ34e8Zl8-19" target="zvsK5lwy2zQuJ34e8Zl8-16">
          <mxGeometry relative="1" as="geometry" />
        </mxCell>
        <mxCell id="zvsK5lwy2zQuJ34e8Zl8-19" value="" style="rounded=1;whiteSpace=wrap;html=1;fillColor=#0050ef;fontColor=#ffffff;strokeColor=#001DBC;opacity=30;" vertex="1" parent="zvsK5lwy2zQuJ34e8Zl8-1">
          <mxGeometry x="116.11111111111109" y="226.15384615384613" width="42.222222222222214" height="21.538461538461537" as="geometry" />
        </mxCell>
        <mxCell id="zvsK5lwy2zQuJ34e8Zl8-20" style="edgeStyle=orthogonalEdgeStyle;rounded=1;orthogonalLoop=1;jettySize=auto;html=1;exitX=0.25;exitY=1;exitDx=0;exitDy=0;entryX=0.5;entryY=0;entryDx=0;entryDy=0;curved=0;opacity=30;fillColor=#d5e8d4;strokeColor=#82b366;" edge="1" parent="zvsK5lwy2zQuJ34e8Zl8-1" source="zvsK5lwy2zQuJ34e8Zl8-21" target="zvsK5lwy2zQuJ34e8Zl8-22">
          <mxGeometry relative="1" as="geometry" />
        </mxCell>
        <mxCell id="sjuLfiEwDjnBNgfOu-Ea-2" style="edgeStyle=orthogonalEdgeStyle;curved=0;rounded=1;orthogonalLoop=1;jettySize=auto;html=1;exitX=0.75;exitY=0;exitDx=0;exitDy=0;entryX=0.75;entryY=1;entryDx=0;entryDy=0;strokeColor=#82b366;align=center;verticalAlign=middle;fontFamily=Helvetica;fontSize=11;fontColor=default;labelBackgroundColor=default;endArrow=classic;fillColor=#d5e8d4;opacity=30;" edge="1" parent="zvsK5lwy2zQuJ34e8Zl8-1" source="zvsK5lwy2zQuJ34e8Zl8-21" target="zvsK5lwy2zQuJ34e8Zl8-13">
          <mxGeometry relative="1" as="geometry">
            <Array as="points">
              <mxPoint x="296" y="139" />
              <mxPoint x="253" y="139" />
            </Array>
          </mxGeometry>
        </mxCell>
        <mxCell id="zvsK5lwy2zQuJ34e8Zl8-21" value="" style="rounded=1;whiteSpace=wrap;html=1;fillColor=#0050ef;fontColor=#ffffff;strokeColor=#001DBC;opacity=30;" vertex="1" parent="zvsK5lwy2zQuJ34e8Zl8-1">
          <mxGeometry x="263.88888888888886" y="161.53846153846152" width="42.222222222222214" height="21.538461538461537" as="geometry" />
        </mxCell>
        <mxCell id="zvsK5lwy2zQuJ34e8Zl8-22" value="" style="rounded=1;whiteSpace=wrap;html=1;fillColor=#0050ef;fontColor=#ffffff;strokeColor=#001DBC;opacity=30;" vertex="1" parent="zvsK5lwy2zQuJ34e8Zl8-1">
          <mxGeometry x="221.66666666666663" y="226.15384615384613" width="42.222222222222214" height="21.538461538461537" as="geometry" />
        </mxCell>
        <mxCell id="zvsK5lwy2zQuJ34e8Zl8-23" style="edgeStyle=orthogonalEdgeStyle;curved=0;rounded=1;orthogonalLoop=1;jettySize=auto;html=1;exitX=0.5;exitY=0;exitDx=0;exitDy=0;entryX=0.75;entryY=1;entryDx=0;entryDy=0;strokeColor=#82b366;align=center;verticalAlign=middle;fontFamily=Helvetica;fontSize=11;fontColor=default;labelBackgroundColor=default;endArrow=classic;fillColor=#d5e8d4;opacity=30;" edge="1" parent="zvsK5lwy2zQuJ34e8Zl8-1" source="zvsK5lwy2zQuJ34e8Zl8-24" target="zvsK5lwy2zQuJ34e8Zl8-21">
          <mxGeometry relative="1" as="geometry" />
        </mxCell>
        <mxCell id="zvsK5lwy2zQuJ34e8Zl8-24" value="" style="rounded=1;whiteSpace=wrap;html=1;fillColor=#0050ef;fontColor=#ffffff;strokeColor=#001DBC;opacity=30;" vertex="1" parent="zvsK5lwy2zQuJ34e8Zl8-1">
          <mxGeometry x="306.1111111111111" y="226.15384615384613" width="42.222222222222214" height="21.538461538461537" as="geometry" />
        </mxCell>
        <mxCell id="zvsK5lwy2zQuJ34e8Zl8-25" value="" style="rounded=1;whiteSpace=wrap;html=1;fontFamily=Helvetica;fontSize=11;labelBackgroundColor=default;opacity=30;arcSize=0;" vertex="1" parent="zvsK5lwy2zQuJ34e8Zl8-1">
          <mxGeometry x="27.000000000000014" y="231.91999999999996" width="10" height="10" as="geometry" />
        </mxCell>
        <mxCell id="zvsK5lwy2zQuJ34e8Zl8-26" value="" style="rounded=1;whiteSpace=wrap;html=1;fontFamily=Helvetica;fontSize=11;labelBackgroundColor=default;opacity=30;arcSize=0;" vertex="1" parent="zvsK5lwy2zQuJ34e8Zl8-1">
          <mxGeometry x="37.000000000000014" y="231.91999999999996" width="10" height="10" as="geometry" />
        </mxCell>
        <mxCell id="zvsK5lwy2zQuJ34e8Zl8-27" value="" style="rounded=1;whiteSpace=wrap;html=1;fontFamily=Helvetica;fontSize=11;labelBackgroundColor=default;opacity=30;arcSize=0;" vertex="1" parent="zvsK5lwy2zQuJ34e8Zl8-1">
          <mxGeometry x="110" y="231.91999999999996" width="10" height="10" as="geometry" />
        </mxCell>
        <mxCell id="zvsK5lwy2zQuJ34e8Zl8-28" style="edgeStyle=orthogonalEdgeStyle;curved=0;rounded=1;orthogonalLoop=1;jettySize=auto;html=1;exitX=1;exitY=0.5;exitDx=0;exitDy=0;strokeColor=#82b366;align=center;verticalAlign=middle;fontFamily=Helvetica;fontSize=11;fontColor=default;labelBackgroundColor=default;endArrow=classic;entryX=0;entryY=0.5;entryDx=0;entryDy=0;opacity=30;fillColor=#d5e8d4;" edge="1" parent="zvsK5lwy2zQuJ34e8Zl8-1" source="zvsK5lwy2zQuJ34e8Zl8-29" target="zvsK5lwy2zQuJ34e8Zl8-27">
          <mxGeometry relative="1" as="geometry" />
        </mxCell>
        <mxCell id="zvsK5lwy2zQuJ34e8Zl8-29" value="" style="rounded=1;whiteSpace=wrap;html=1;fontFamily=Helvetica;fontSize=11;labelBackgroundColor=default;fillColor=#1ba1e2;strokeColor=#006EAF;opacity=50;arcSize=0;fontColor=#ffffff;" vertex="1" parent="zvsK5lwy2zQuJ34e8Zl8-1">
          <mxGeometry x="67.99999999999999" y="231.91999999999996" width="10" height="10" as="geometry" />
        </mxCell>
        <mxCell id="zvsK5lwy2zQuJ34e8Zl8-30" value="" style="rounded=1;whiteSpace=wrap;html=1;fontFamily=Helvetica;fontSize=11;labelBackgroundColor=default;fillColor=#1ba1e2;strokeColor=#006EAF;opacity=50;arcSize=0;fontColor=#ffffff;" vertex="1" parent="zvsK5lwy2zQuJ34e8Zl8-1">
          <mxGeometry x="143" y="231.91999999999996" width="10" height="10" as="geometry" />
        </mxCell>
        <mxCell id="zvsK5lwy2zQuJ34e8Zl8-31" value="" style="rounded=1;whiteSpace=wrap;html=1;fontFamily=Helvetica;fontSize=11;labelBackgroundColor=default;fillColor=#1ba1e2;strokeColor=#006EAF;opacity=50;arcSize=0;fontColor=#ffffff;" vertex="1" parent="zvsK5lwy2zQuJ34e8Zl8-1">
          <mxGeometry x="154" y="231.91999999999996" width="10" height="10" as="geometry" />
        </mxCell>
        <mxCell id="zvsK5lwy2zQuJ34e8Zl8-32" value="" style="rounded=1;whiteSpace=wrap;html=1;fontFamily=Helvetica;fontSize=11;labelBackgroundColor=default;fillColor=#1ba1e2;strokeColor=#006EAF;opacity=50;arcSize=0;fontColor=#ffffff;" vertex="1" parent="zvsK5lwy2zQuJ34e8Zl8-1">
          <mxGeometry x="110" y="167.30999999999995" width="10" height="10" as="geometry" />
        </mxCell>
        <mxCell id="zvsK5lwy2zQuJ34e8Zl8-33" value="" style="rounded=1;whiteSpace=wrap;html=1;fontFamily=Helvetica;fontSize=11;labelBackgroundColor=default;fillColor=#1ba1e2;strokeColor=#006EAF;opacity=50;arcSize=0;fontColor=#ffffff;" vertex="1" parent="zvsK5lwy2zQuJ34e8Zl8-1">
          <mxGeometry x="152" y="102.68999999999994" width="10" height="10" as="geometry" />
        </mxCell>
        <mxCell id="zvsK5lwy2zQuJ34e8Zl8-34" value="" style="rounded=1;whiteSpace=wrap;html=1;fontFamily=Helvetica;fontSize=11;labelBackgroundColor=default;fillColor=#1ba1e2;strokeColor=#006EAF;opacity=50;arcSize=0;fontColor=#ffffff;" vertex="1" parent="zvsK5lwy2zQuJ34e8Zl8-1">
          <mxGeometry x="258" y="101.99999999999994" width="10" height="10" as="geometry" />
        </mxCell>
        <mxCell id="zvsK5lwy2zQuJ34e8Zl8-35" value="" style="rounded=1;whiteSpace=wrap;html=1;fontFamily=Helvetica;fontSize=11;labelBackgroundColor=default;fillColor=#1ba1e2;strokeColor=#006EAF;opacity=50;arcSize=0;fontColor=#ffffff;" vertex="1" parent="zvsK5lwy2zQuJ34e8Zl8-1">
          <mxGeometry x="300" y="167.30999999999995" width="10" height="10" as="geometry" />
        </mxCell>
        <mxCell id="zvsK5lwy2zQuJ34e8Zl8-36" value="" style="rounded=1;whiteSpace=wrap;html=1;fontFamily=Helvetica;fontSize=11;labelBackgroundColor=default;fillColor=#1ba1e2;strokeColor=#006EAF;opacity=50;arcSize=0;fontColor=#ffffff;" vertex="1" parent="zvsK5lwy2zQuJ34e8Zl8-1">
          <mxGeometry x="259" y="231.99999999999994" width="10" height="10" as="geometry" />
        </mxCell>
        <mxCell id="zvsK5lwy2zQuJ34e8Zl8-37" value="" style="rounded=1;whiteSpace=wrap;html=1;fontFamily=Helvetica;fontSize=11;labelBackgroundColor=default;fillColor=#1ba1e2;strokeColor=#006EAF;opacity=50;arcSize=0;fontColor=#ffffff;" vertex="1" parent="zvsK5lwy2zQuJ34e8Zl8-1">
          <mxGeometry x="343" y="231.99999999999994" width="10" height="10" as="geometry" />
        </mxCell>
        <mxCell id="zvsK5lwy2zQuJ34e8Zl8-38" value="" style="rounded=1;whiteSpace=wrap;html=1;fontFamily=Helvetica;fontSize=11;labelBackgroundColor=default;fillColor=#1ba1e2;strokeColor=#006EAF;opacity=50;arcSize=0;fontColor=#ffffff;" vertex="1" parent="zvsK5lwy2zQuJ34e8Zl8-1">
          <mxGeometry x="206" y="38.079999999999956" width="10" height="10" as="geometry" />
        </mxCell>
        <mxCell id="zvsK5lwy2zQuJ34e8Zl8-39" value="" style="rounded=1;whiteSpace=wrap;html=1;fontFamily=Helvetica;fontSize=11;labelBackgroundColor=default;opacity=30;arcSize=0;" vertex="1" parent="zvsK5lwy2zQuJ34e8Zl8-1">
          <mxGeometry x="69" y="167.99999999999994" width="10" height="10" as="geometry" />
        </mxCell>
        <mxCell id="zvsK5lwy2zQuJ34e8Zl8-40" value="" style="rounded=1;whiteSpace=wrap;html=1;fontFamily=Helvetica;fontSize=11;labelBackgroundColor=default;opacity=30;arcSize=0;" vertex="1" parent="zvsK5lwy2zQuJ34e8Zl8-1">
          <mxGeometry x="111" y="102.68999999999994" width="10" height="10" as="geometry" />
        </mxCell>
        <mxCell id="zvsK5lwy2zQuJ34e8Zl8-41" value="" style="rounded=1;whiteSpace=wrap;html=1;fontFamily=Helvetica;fontSize=11;labelBackgroundColor=default;opacity=30;arcSize=0;" vertex="1" parent="zvsK5lwy2zQuJ34e8Zl8-1">
          <mxGeometry x="164" y="38.07999999999994" width="10" height="10" as="geometry" />
        </mxCell>
        <mxCell id="zvsK5lwy2zQuJ34e8Zl8-42" value="" style="rounded=1;whiteSpace=wrap;html=1;fontFamily=Helvetica;fontSize=11;labelBackgroundColor=default;opacity=30;arcSize=0;" vertex="1" parent="zvsK5lwy2zQuJ34e8Zl8-1">
          <mxGeometry x="216" y="102.68999999999994" width="10" height="10" as="geometry" />
        </mxCell>
        <mxCell id="zvsK5lwy2zQuJ34e8Zl8-43" value="" style="rounded=1;whiteSpace=wrap;html=1;fontFamily=Helvetica;fontSize=11;labelBackgroundColor=default;opacity=30;arcSize=0;" vertex="1" parent="zvsK5lwy2zQuJ34e8Zl8-1">
          <mxGeometry x="259" y="167.30999999999995" width="10" height="10" as="geometry" />
        </mxCell>
        <mxCell id="zvsK5lwy2zQuJ34e8Zl8-44" value="" style="rounded=1;whiteSpace=wrap;html=1;fontFamily=Helvetica;fontSize=11;labelBackgroundColor=default;opacity=30;arcSize=0;" vertex="1" parent="zvsK5lwy2zQuJ34e8Zl8-1">
          <mxGeometry x="216" y="231.99999999999994" width="10" height="10" as="geometry" />
        </mxCell>
        <mxCell id="zvsK5lwy2zQuJ34e8Zl8-45" value="" style="rounded=1;whiteSpace=wrap;html=1;fontFamily=Helvetica;fontSize=11;labelBackgroundColor=default;opacity=30;arcSize=0;" vertex="1" parent="zvsK5lwy2zQuJ34e8Zl8-1">
          <mxGeometry x="301" y="231.91999999999996" width="10" height="10" as="geometry" />
        </mxCell>
        <mxCell id="zvsK5lwy2zQuJ34e8Zl8-63" style="edgeStyle=orthogonalEdgeStyle;curved=0;rounded=1;orthogonalLoop=1;jettySize=auto;html=1;entryX=-0.005;entryY=0.409;entryDx=0;entryDy=0;entryPerimeter=0;strokeColor=default;align=center;verticalAlign=middle;fontFamily=Helvetica;fontSize=11;fontColor=default;labelBackgroundColor=default;endArrow=classic;" edge="1" parent="1" source="5tUV26yEdHO98M0B-vXa-6" target="zvsK5lwy2zQuJ34e8Zl8-2">
          <mxGeometry relative="1" as="geometry" />
        </mxCell>
        <mxCell id="zUV3xOq_UNgCQQx3mUhL-2" style="edgeStyle=orthogonalEdgeStyle;curved=0;rounded=1;orthogonalLoop=1;jettySize=auto;html=1;entryX=0.5;entryY=0;entryDx=0;entryDy=0;strokeColor=default;align=center;verticalAlign=middle;fontFamily=Helvetica;fontSize=11;fontColor=default;labelBackgroundColor=default;endArrow=classic;" edge="1" parent="1" source="zUV3xOq_UNgCQQx3mUhL-1" target="5tUV26yEdHO98M0B-vXa-6">
          <mxGeometry relative="1" as="geometry" />
        </mxCell>
        <mxCell id="zUV3xOq_UNgCQQx3mUhL-1" value="dictionary of templates" style="shape=cylinder3;whiteSpace=wrap;html=1;boundedLbl=1;backgroundOutline=1;size=15;" vertex="1" parent="1">
          <mxGeometry x="211" y="18" width="60" height="80" as="geometry" />
        </mxCell>
        <mxCell id="zUV3xOq_UNgCQQx3mUhL-4" style="edgeStyle=orthogonalEdgeStyle;curved=0;rounded=1;orthogonalLoop=1;jettySize=auto;html=1;entryX=0;entryY=0.5;entryDx=0;entryDy=0;strokeColor=default;align=center;verticalAlign=middle;fontFamily=Helvetica;fontSize=11;fontColor=default;labelBackgroundColor=default;endArrow=classic;" edge="1" parent="1" source="zUV3xOq_UNgCQQx3mUhL-3" target="5tUV26yEdHO98M0B-vXa-6">
          <mxGeometry relative="1" as="geometry" />
        </mxCell>
        <mxCell id="zUV3xOq_UNgCQQx3mUhL-3" value="name of top-level diagram" style="rounded=1;whiteSpace=wrap;html=1;fontFamily=Helvetica;fontSize=11;fontColor=default;labelBackgroundColor=default;strokeColor=none;" vertex="1" parent="1">
          <mxGeometry x="4" y="150" width="120" height="60" as="geometry" />
        </mxCell>
      </root>
    </mxGraphModel>
  </diagram>
  <diagram id="7-Sc1oKeXhR_oLdzuEQ9" name="4 Inject first message(s)">
    <mxGraphModel dx="1100" dy="696" grid="1" gridSize="10" guides="1" tooltips="1" connect="1" arrows="1" fold="1" page="1" pageScale="1" pageWidth="850" pageHeight="1100" math="0" shadow="0">
      <root>
        <mxCell id="0" />
        <mxCell id="1" parent="0" />
        <mxCell id="xL6yS0dhDIcAlWwyXvUo-35" style="edgeStyle=orthogonalEdgeStyle;curved=0;rounded=1;orthogonalLoop=1;jettySize=auto;html=1;strokeColor=default;align=center;verticalAlign=middle;fontFamily=Helvetica;fontSize=11;fontColor=default;labelBackgroundColor=default;endArrow=classic;" edge="1" parent="1" source="xL6yS0dhDIcAlWwyXvUo-36">
          <mxGeometry relative="1" as="geometry">
            <mxPoint x="240" y="180" as="targetPoint" />
          </mxGeometry>
        </mxCell>
        <mxCell id="xL6yS0dhDIcAlWwyXvUo-36" value="code in host language" style="ellipse;shape=cloud;whiteSpace=wrap;html=1;fontFamily=Helvetica;fontSize=11;fontColor=default;labelBackgroundColor=default;" vertex="1" parent="1">
          <mxGeometry x="40" y="140" width="120" height="80" as="geometry" />
        </mxCell>
        <mxCell id="AGFn972SJDV3hSRBSLQK-1" value="Instantiated Components" style="rounded=1;whiteSpace=wrap;html=1;fontFamily=Helvetica;fontSize=11;fontColor=default;labelBackgroundColor=default;verticalAlign=top;container=1;" vertex="1" parent="1">
          <mxGeometry x="310" y="40" width="380" height="280" as="geometry" />
        </mxCell>
        <mxCell id="AGFn972SJDV3hSRBSLQK-2" value="" style="rounded=1;whiteSpace=wrap;html=1;fontFamily=Helvetica;fontSize=11;fontColor=#333333;labelBackgroundColor=default;dashed=1;dashPattern=1 4;fillColor=#f5f5f5;strokeColor=#666666;opacity=40;" vertex="1" parent="AGFn972SJDV3hSRBSLQK-1">
          <mxGeometry x="200.55555555555554" y="107.6923076923077" width="168.88888888888886" height="161.53846153846152" as="geometry" />
        </mxCell>
        <mxCell id="AGFn972SJDV3hSRBSLQK-3" value="" style="rounded=1;whiteSpace=wrap;html=1;fontFamily=Helvetica;fontSize=11;fontColor=#333333;labelBackgroundColor=default;dashed=1;dashPattern=1 4;fillColor=#f5f5f5;strokeColor=#666666;opacity=30;" vertex="1" parent="AGFn972SJDV3hSRBSLQK-1">
          <mxGeometry y="43.07692307692307" width="379.99999999999994" height="236.9230769230769" as="geometry" />
        </mxCell>
        <mxCell id="AGFn972SJDV3hSRBSLQK-4" value="" style="rounded=1;whiteSpace=wrap;html=1;fontFamily=Helvetica;fontSize=11;fontColor=#333333;labelBackgroundColor=default;dashed=1;dashPattern=1 4;fillColor=#f5f5f5;strokeColor=#666666;opacity=40;" vertex="1" parent="AGFn972SJDV3hSRBSLQK-1">
          <mxGeometry x="10.555555555555554" y="107.6923076923077" width="168.88888888888886" height="161.53846153846152" as="geometry" />
        </mxCell>
        <mxCell id="AGFn972SJDV3hSRBSLQK-5" value="" style="rounded=1;whiteSpace=wrap;html=1;fontFamily=Helvetica;fontSize=11;fontColor=#333333;labelBackgroundColor=default;dashed=1;dashPattern=1 4;fillColor=#f5f5f5;strokeColor=#666666;opacity=60;" vertex="1" parent="AGFn972SJDV3hSRBSLQK-1">
          <mxGeometry x="211.1111111111111" y="172.3076923076923" width="147.77777777777777" height="86.15384615384615" as="geometry" />
        </mxCell>
        <mxCell id="AGFn972SJDV3hSRBSLQK-6" value="" style="rounded=1;whiteSpace=wrap;html=1;fontFamily=Helvetica;fontSize=11;fontColor=#333333;labelBackgroundColor=default;dashed=1;dashPattern=1 4;opacity=60;fillColor=#f5f5f5;strokeColor=#666666;" vertex="1" parent="AGFn972SJDV3hSRBSLQK-1">
          <mxGeometry x="21.111111111111107" y="172.3076923076923" width="147.77777777777777" height="86.15384615384615" as="geometry" />
        </mxCell>
        <mxCell id="AGFn972SJDV3hSRBSLQK-7" style="edgeStyle=orthogonalEdgeStyle;rounded=1;orthogonalLoop=1;jettySize=auto;html=1;exitX=0.25;exitY=1;exitDx=0;exitDy=0;entryX=0.5;entryY=0;entryDx=0;entryDy=0;curved=0;opacity=30;fillColor=#d5e8d4;strokeColor=#82b366;" edge="1" parent="AGFn972SJDV3hSRBSLQK-1" source="AGFn972SJDV3hSRBSLQK-9" target="AGFn972SJDV3hSRBSLQK-11">
          <mxGeometry relative="1" as="geometry" />
        </mxCell>
        <mxCell id="AGFn972SJDV3hSRBSLQK-8" style="edgeStyle=orthogonalEdgeStyle;rounded=1;orthogonalLoop=1;jettySize=auto;html=1;exitX=0.5;exitY=0;exitDx=0;exitDy=0;entryX=0.75;entryY=1;entryDx=0;entryDy=0;curved=0;opacity=30;fillColor=#d5e8d4;strokeColor=#82b366;" edge="1" parent="AGFn972SJDV3hSRBSLQK-1" source="AGFn972SJDV3hSRBSLQK-13" target="AGFn972SJDV3hSRBSLQK-9">
          <mxGeometry relative="1" as="geometry" />
        </mxCell>
        <mxCell id="AGFn972SJDV3hSRBSLQK-9" value="" style="rounded=1;whiteSpace=wrap;html=1;fillColor=#0050ef;fontColor=#ffffff;strokeColor=#001DBC;opacity=30;" vertex="1" parent="AGFn972SJDV3hSRBSLQK-1">
          <mxGeometry x="168.88888888888886" y="32.30769230769231" width="42.222222222222214" height="21.538461538461537" as="geometry" />
        </mxCell>
        <mxCell id="AGFn972SJDV3hSRBSLQK-10" style="edgeStyle=orthogonalEdgeStyle;curved=0;rounded=1;orthogonalLoop=1;jettySize=auto;html=1;exitX=0.25;exitY=1;exitDx=0;exitDy=0;entryX=0.326;entryY=-0.01;entryDx=0;entryDy=0;strokeColor=#82b366;align=center;verticalAlign=middle;fontFamily=Helvetica;fontSize=11;fontColor=default;labelBackgroundColor=default;endArrow=classic;entryPerimeter=0;opacity=30;fillColor=#d5e8d4;" edge="1" parent="AGFn972SJDV3hSRBSLQK-1" source="AGFn972SJDV3hSRBSLQK-11" target="AGFn972SJDV3hSRBSLQK-16">
          <mxGeometry relative="1" as="geometry">
            <Array as="points">
              <mxPoint x="127" y="137" />
              <mxPoint x="88" y="137" />
            </Array>
          </mxGeometry>
        </mxCell>
        <mxCell id="AGFn972SJDV3hSRBSLQK-11" value="" style="rounded=1;whiteSpace=wrap;html=1;fillColor=#0050ef;fontColor=#ffffff;strokeColor=#001DBC;opacity=30;" vertex="1" parent="AGFn972SJDV3hSRBSLQK-1">
          <mxGeometry x="116.11111111111109" y="96.92307692307692" width="42.222222222222214" height="21.538461538461537" as="geometry" />
        </mxCell>
        <mxCell id="AGFn972SJDV3hSRBSLQK-12" style="edgeStyle=orthogonalEdgeStyle;curved=0;rounded=1;orthogonalLoop=1;jettySize=auto;html=1;exitX=0.25;exitY=1;exitDx=0;exitDy=0;entryX=0.25;entryY=0;entryDx=0;entryDy=0;strokeColor=#82b366;align=center;verticalAlign=middle;fontFamily=Helvetica;fontSize=11;fontColor=default;labelBackgroundColor=default;endArrow=classic;fillColor=#d5e8d4;opacity=30;" edge="1" parent="AGFn972SJDV3hSRBSLQK-1" source="AGFn972SJDV3hSRBSLQK-13" target="AGFn972SJDV3hSRBSLQK-22">
          <mxGeometry relative="1" as="geometry">
            <Array as="points">
              <mxPoint x="232" y="144" />
              <mxPoint x="274" y="144" />
            </Array>
          </mxGeometry>
        </mxCell>
        <mxCell id="AGFn972SJDV3hSRBSLQK-13" value="" style="rounded=1;whiteSpace=wrap;html=1;fillColor=#0050ef;fontColor=#ffffff;strokeColor=#001DBC;opacity=30;" vertex="1" parent="AGFn972SJDV3hSRBSLQK-1">
          <mxGeometry x="221.66666666666663" y="96.92307692307692" width="42.222222222222214" height="21.538461538461537" as="geometry" />
        </mxCell>
        <mxCell id="AGFn972SJDV3hSRBSLQK-14" style="edgeStyle=orthogonalEdgeStyle;rounded=1;orthogonalLoop=1;jettySize=auto;html=1;exitX=0.25;exitY=1;exitDx=0;exitDy=0;entryX=0.5;entryY=0;entryDx=0;entryDy=0;curved=0;opacity=30;fillColor=#d5e8d4;strokeColor=#82b366;" edge="1" parent="AGFn972SJDV3hSRBSLQK-1" source="AGFn972SJDV3hSRBSLQK-16" target="AGFn972SJDV3hSRBSLQK-17">
          <mxGeometry relative="1" as="geometry" />
        </mxCell>
        <mxCell id="AGFn972SJDV3hSRBSLQK-15" style="edgeStyle=orthogonalEdgeStyle;curved=0;rounded=1;orthogonalLoop=1;jettySize=auto;html=1;exitX=0.75;exitY=0;exitDx=0;exitDy=0;entryX=0.75;entryY=1;entryDx=0;entryDy=0;strokeColor=#82b366;align=center;verticalAlign=middle;fontFamily=Helvetica;fontSize=11;fontColor=default;labelBackgroundColor=default;endArrow=classic;opacity=30;fillColor=#d5e8d4;" edge="1" parent="AGFn972SJDV3hSRBSLQK-1" source="AGFn972SJDV3hSRBSLQK-16" target="AGFn972SJDV3hSRBSLQK-11">
          <mxGeometry relative="1" as="geometry">
            <Array as="points">
              <mxPoint x="106" y="142" />
              <mxPoint x="148" y="142" />
            </Array>
          </mxGeometry>
        </mxCell>
        <mxCell id="AGFn972SJDV3hSRBSLQK-16" value="" style="rounded=1;whiteSpace=wrap;html=1;fillColor=#0050ef;fontColor=#ffffff;strokeColor=#001DBC;opacity=30;" vertex="1" parent="AGFn972SJDV3hSRBSLQK-1">
          <mxGeometry x="73.88888888888889" y="161.53846153846152" width="42.222222222222214" height="21.538461538461537" as="geometry" />
        </mxCell>
        <mxCell id="AGFn972SJDV3hSRBSLQK-17" value="" style="rounded=1;whiteSpace=wrap;html=1;fillColor=#0050ef;fontColor=#ffffff;strokeColor=#001DBC;opacity=30;" vertex="1" parent="AGFn972SJDV3hSRBSLQK-1">
          <mxGeometry x="31.66666666666666" y="226.15384615384613" width="42.222222222222214" height="21.538461538461537" as="geometry" />
        </mxCell>
        <mxCell id="AGFn972SJDV3hSRBSLQK-18" style="edgeStyle=orthogonalEdgeStyle;curved=0;rounded=1;orthogonalLoop=1;jettySize=auto;html=1;exitX=0.5;exitY=0;exitDx=0;exitDy=0;entryX=0.75;entryY=1;entryDx=0;entryDy=0;strokeColor=#82b366;align=center;verticalAlign=middle;fontFamily=Helvetica;fontSize=11;fontColor=default;labelBackgroundColor=default;endArrow=classic;opacity=30;fillColor=#d5e8d4;" edge="1" parent="AGFn972SJDV3hSRBSLQK-1" source="AGFn972SJDV3hSRBSLQK-19" target="AGFn972SJDV3hSRBSLQK-16">
          <mxGeometry relative="1" as="geometry" />
        </mxCell>
        <mxCell id="AGFn972SJDV3hSRBSLQK-19" value="" style="rounded=1;whiteSpace=wrap;html=1;fillColor=#0050ef;fontColor=#ffffff;strokeColor=#001DBC;opacity=30;" vertex="1" parent="AGFn972SJDV3hSRBSLQK-1">
          <mxGeometry x="116.11111111111109" y="226.15384615384613" width="42.222222222222214" height="21.538461538461537" as="geometry" />
        </mxCell>
        <mxCell id="AGFn972SJDV3hSRBSLQK-20" style="edgeStyle=orthogonalEdgeStyle;rounded=1;orthogonalLoop=1;jettySize=auto;html=1;exitX=0.25;exitY=1;exitDx=0;exitDy=0;entryX=0.5;entryY=0;entryDx=0;entryDy=0;curved=0;opacity=30;fillColor=#d5e8d4;strokeColor=#82b366;" edge="1" parent="AGFn972SJDV3hSRBSLQK-1" source="AGFn972SJDV3hSRBSLQK-22" target="AGFn972SJDV3hSRBSLQK-23">
          <mxGeometry relative="1" as="geometry" />
        </mxCell>
        <mxCell id="AGFn972SJDV3hSRBSLQK-21" style="edgeStyle=orthogonalEdgeStyle;curved=0;rounded=1;orthogonalLoop=1;jettySize=auto;html=1;exitX=0.75;exitY=0;exitDx=0;exitDy=0;entryX=0.75;entryY=1;entryDx=0;entryDy=0;strokeColor=#82b366;align=center;verticalAlign=middle;fontFamily=Helvetica;fontSize=11;fontColor=default;labelBackgroundColor=default;endArrow=classic;fillColor=#d5e8d4;opacity=30;" edge="1" parent="AGFn972SJDV3hSRBSLQK-1" source="AGFn972SJDV3hSRBSLQK-22" target="AGFn972SJDV3hSRBSLQK-13">
          <mxGeometry relative="1" as="geometry">
            <Array as="points">
              <mxPoint x="296" y="139" />
              <mxPoint x="253" y="139" />
            </Array>
          </mxGeometry>
        </mxCell>
        <mxCell id="AGFn972SJDV3hSRBSLQK-22" value="" style="rounded=1;whiteSpace=wrap;html=1;fillColor=#0050ef;fontColor=#ffffff;strokeColor=#001DBC;opacity=30;" vertex="1" parent="AGFn972SJDV3hSRBSLQK-1">
          <mxGeometry x="263.88888888888886" y="161.53846153846152" width="42.222222222222214" height="21.538461538461537" as="geometry" />
        </mxCell>
        <mxCell id="AGFn972SJDV3hSRBSLQK-23" value="" style="rounded=1;whiteSpace=wrap;html=1;fillColor=#0050ef;fontColor=#ffffff;strokeColor=#001DBC;opacity=30;" vertex="1" parent="AGFn972SJDV3hSRBSLQK-1">
          <mxGeometry x="221.66666666666663" y="226.15384615384613" width="42.222222222222214" height="21.538461538461537" as="geometry" />
        </mxCell>
        <mxCell id="AGFn972SJDV3hSRBSLQK-24" style="edgeStyle=orthogonalEdgeStyle;curved=0;rounded=1;orthogonalLoop=1;jettySize=auto;html=1;exitX=0.5;exitY=0;exitDx=0;exitDy=0;entryX=0.75;entryY=1;entryDx=0;entryDy=0;strokeColor=#82b366;align=center;verticalAlign=middle;fontFamily=Helvetica;fontSize=11;fontColor=default;labelBackgroundColor=default;endArrow=classic;fillColor=#d5e8d4;opacity=30;" edge="1" parent="AGFn972SJDV3hSRBSLQK-1" source="AGFn972SJDV3hSRBSLQK-25" target="AGFn972SJDV3hSRBSLQK-22">
          <mxGeometry relative="1" as="geometry" />
        </mxCell>
        <mxCell id="AGFn972SJDV3hSRBSLQK-25" value="" style="rounded=1;whiteSpace=wrap;html=1;fillColor=#0050ef;fontColor=#ffffff;strokeColor=#001DBC;opacity=30;" vertex="1" parent="AGFn972SJDV3hSRBSLQK-1">
          <mxGeometry x="306.1111111111111" y="226.15384615384613" width="42.222222222222214" height="21.538461538461537" as="geometry" />
        </mxCell>
        <mxCell id="AGFn972SJDV3hSRBSLQK-26" value="" style="rounded=1;whiteSpace=wrap;html=1;fontFamily=Helvetica;fontSize=11;labelBackgroundColor=default;opacity=30;arcSize=0;" vertex="1" parent="AGFn972SJDV3hSRBSLQK-1">
          <mxGeometry x="27.000000000000014" y="231.91999999999996" width="10" height="10" as="geometry" />
        </mxCell>
        <mxCell id="AGFn972SJDV3hSRBSLQK-27" value="" style="rounded=1;whiteSpace=wrap;html=1;fontFamily=Helvetica;fontSize=11;labelBackgroundColor=default;opacity=30;arcSize=0;" vertex="1" parent="AGFn972SJDV3hSRBSLQK-1">
          <mxGeometry x="37.000000000000014" y="231.91999999999996" width="10" height="10" as="geometry" />
        </mxCell>
        <mxCell id="AGFn972SJDV3hSRBSLQK-28" value="" style="rounded=1;whiteSpace=wrap;html=1;fontFamily=Helvetica;fontSize=11;labelBackgroundColor=default;opacity=30;arcSize=0;" vertex="1" parent="AGFn972SJDV3hSRBSLQK-1">
          <mxGeometry x="110" y="231.91999999999996" width="10" height="10" as="geometry" />
        </mxCell>
        <mxCell id="AGFn972SJDV3hSRBSLQK-29" style="edgeStyle=orthogonalEdgeStyle;curved=0;rounded=1;orthogonalLoop=1;jettySize=auto;html=1;exitX=1;exitY=0.5;exitDx=0;exitDy=0;strokeColor=#82b366;align=center;verticalAlign=middle;fontFamily=Helvetica;fontSize=11;fontColor=default;labelBackgroundColor=default;endArrow=classic;entryX=0;entryY=0.5;entryDx=0;entryDy=0;opacity=30;fillColor=#d5e8d4;" edge="1" parent="AGFn972SJDV3hSRBSLQK-1" source="AGFn972SJDV3hSRBSLQK-30" target="AGFn972SJDV3hSRBSLQK-28">
          <mxGeometry relative="1" as="geometry" />
        </mxCell>
        <mxCell id="AGFn972SJDV3hSRBSLQK-30" value="" style="rounded=1;whiteSpace=wrap;html=1;fontFamily=Helvetica;fontSize=11;labelBackgroundColor=default;fillColor=#1ba1e2;strokeColor=#006EAF;opacity=50;arcSize=0;fontColor=#ffffff;" vertex="1" parent="AGFn972SJDV3hSRBSLQK-1">
          <mxGeometry x="67.99999999999999" y="231.91999999999996" width="10" height="10" as="geometry" />
        </mxCell>
        <mxCell id="AGFn972SJDV3hSRBSLQK-31" value="" style="rounded=1;whiteSpace=wrap;html=1;fontFamily=Helvetica;fontSize=11;labelBackgroundColor=default;fillColor=#1ba1e2;strokeColor=#006EAF;opacity=50;arcSize=0;fontColor=#ffffff;" vertex="1" parent="AGFn972SJDV3hSRBSLQK-1">
          <mxGeometry x="143" y="231.91999999999996" width="10" height="10" as="geometry" />
        </mxCell>
        <mxCell id="AGFn972SJDV3hSRBSLQK-32" value="" style="rounded=1;whiteSpace=wrap;html=1;fontFamily=Helvetica;fontSize=11;labelBackgroundColor=default;fillColor=#1ba1e2;strokeColor=#006EAF;opacity=50;arcSize=0;fontColor=#ffffff;" vertex="1" parent="AGFn972SJDV3hSRBSLQK-1">
          <mxGeometry x="154" y="231.91999999999996" width="10" height="10" as="geometry" />
        </mxCell>
        <mxCell id="AGFn972SJDV3hSRBSLQK-33" value="" style="rounded=1;whiteSpace=wrap;html=1;fontFamily=Helvetica;fontSize=11;labelBackgroundColor=default;fillColor=#1ba1e2;strokeColor=#006EAF;opacity=50;arcSize=0;fontColor=#ffffff;" vertex="1" parent="AGFn972SJDV3hSRBSLQK-1">
          <mxGeometry x="110" y="167.30999999999995" width="10" height="10" as="geometry" />
        </mxCell>
        <mxCell id="AGFn972SJDV3hSRBSLQK-34" value="" style="rounded=1;whiteSpace=wrap;html=1;fontFamily=Helvetica;fontSize=11;labelBackgroundColor=default;fillColor=#1ba1e2;strokeColor=#006EAF;opacity=50;arcSize=0;fontColor=#ffffff;" vertex="1" parent="AGFn972SJDV3hSRBSLQK-1">
          <mxGeometry x="152" y="102.68999999999994" width="10" height="10" as="geometry" />
        </mxCell>
        <mxCell id="AGFn972SJDV3hSRBSLQK-35" value="" style="rounded=1;whiteSpace=wrap;html=1;fontFamily=Helvetica;fontSize=11;labelBackgroundColor=default;fillColor=#1ba1e2;strokeColor=#006EAF;opacity=50;arcSize=0;fontColor=#ffffff;" vertex="1" parent="AGFn972SJDV3hSRBSLQK-1">
          <mxGeometry x="258" y="101.99999999999994" width="10" height="10" as="geometry" />
        </mxCell>
        <mxCell id="AGFn972SJDV3hSRBSLQK-36" value="" style="rounded=1;whiteSpace=wrap;html=1;fontFamily=Helvetica;fontSize=11;labelBackgroundColor=default;fillColor=#1ba1e2;strokeColor=#006EAF;opacity=50;arcSize=0;fontColor=#ffffff;" vertex="1" parent="AGFn972SJDV3hSRBSLQK-1">
          <mxGeometry x="300" y="167.30999999999995" width="10" height="10" as="geometry" />
        </mxCell>
        <mxCell id="AGFn972SJDV3hSRBSLQK-37" value="" style="rounded=1;whiteSpace=wrap;html=1;fontFamily=Helvetica;fontSize=11;labelBackgroundColor=default;fillColor=#1ba1e2;strokeColor=#006EAF;opacity=50;arcSize=0;fontColor=#ffffff;" vertex="1" parent="AGFn972SJDV3hSRBSLQK-1">
          <mxGeometry x="259" y="231.99999999999994" width="10" height="10" as="geometry" />
        </mxCell>
        <mxCell id="AGFn972SJDV3hSRBSLQK-38" value="" style="rounded=1;whiteSpace=wrap;html=1;fontFamily=Helvetica;fontSize=11;labelBackgroundColor=default;fillColor=#1ba1e2;strokeColor=#006EAF;opacity=50;arcSize=0;fontColor=#ffffff;" vertex="1" parent="AGFn972SJDV3hSRBSLQK-1">
          <mxGeometry x="343" y="231.99999999999994" width="10" height="10" as="geometry" />
        </mxCell>
        <mxCell id="AGFn972SJDV3hSRBSLQK-39" value="" style="rounded=1;whiteSpace=wrap;html=1;fontFamily=Helvetica;fontSize=11;labelBackgroundColor=default;fillColor=#1ba1e2;strokeColor=#006EAF;opacity=50;arcSize=0;fontColor=#ffffff;" vertex="1" parent="AGFn972SJDV3hSRBSLQK-1">
          <mxGeometry x="206" y="38.079999999999956" width="10" height="10" as="geometry" />
        </mxCell>
        <mxCell id="AGFn972SJDV3hSRBSLQK-40" value="" style="rounded=1;whiteSpace=wrap;html=1;fontFamily=Helvetica;fontSize=11;labelBackgroundColor=default;opacity=30;arcSize=0;" vertex="1" parent="AGFn972SJDV3hSRBSLQK-1">
          <mxGeometry x="69" y="167.99999999999994" width="10" height="10" as="geometry" />
        </mxCell>
        <mxCell id="AGFn972SJDV3hSRBSLQK-41" value="" style="rounded=1;whiteSpace=wrap;html=1;fontFamily=Helvetica;fontSize=11;labelBackgroundColor=default;opacity=30;arcSize=0;" vertex="1" parent="AGFn972SJDV3hSRBSLQK-1">
          <mxGeometry x="111" y="102.68999999999994" width="10" height="10" as="geometry" />
        </mxCell>
        <mxCell id="AGFn972SJDV3hSRBSLQK-42" value="" style="rounded=1;whiteSpace=wrap;html=1;fontFamily=Helvetica;fontSize=11;labelBackgroundColor=default;opacity=30;arcSize=0;" vertex="1" parent="AGFn972SJDV3hSRBSLQK-1">
          <mxGeometry x="164" y="38.07999999999994" width="10" height="10" as="geometry" />
        </mxCell>
        <mxCell id="AGFn972SJDV3hSRBSLQK-43" value="" style="rounded=1;whiteSpace=wrap;html=1;fontFamily=Helvetica;fontSize=11;labelBackgroundColor=default;opacity=30;arcSize=0;" vertex="1" parent="AGFn972SJDV3hSRBSLQK-1">
          <mxGeometry x="216" y="102.68999999999994" width="10" height="10" as="geometry" />
        </mxCell>
        <mxCell id="AGFn972SJDV3hSRBSLQK-44" value="" style="rounded=1;whiteSpace=wrap;html=1;fontFamily=Helvetica;fontSize=11;labelBackgroundColor=default;opacity=30;arcSize=0;" vertex="1" parent="AGFn972SJDV3hSRBSLQK-1">
          <mxGeometry x="259" y="167.30999999999995" width="10" height="10" as="geometry" />
        </mxCell>
        <mxCell id="AGFn972SJDV3hSRBSLQK-45" value="" style="rounded=1;whiteSpace=wrap;html=1;fontFamily=Helvetica;fontSize=11;labelBackgroundColor=default;opacity=30;arcSize=0;" vertex="1" parent="AGFn972SJDV3hSRBSLQK-1">
          <mxGeometry x="216" y="231.99999999999994" width="10" height="10" as="geometry" />
        </mxCell>
        <mxCell id="AGFn972SJDV3hSRBSLQK-46" value="" style="rounded=1;whiteSpace=wrap;html=1;fontFamily=Helvetica;fontSize=11;labelBackgroundColor=default;opacity=30;arcSize=0;" vertex="1" parent="AGFn972SJDV3hSRBSLQK-1">
          <mxGeometry x="301" y="231.91999999999996" width="10" height="10" as="geometry" />
        </mxCell>
        <mxCell id="xL6yS0dhDIcAlWwyXvUo-38" value="" style="endArrow=none;html=1;rounded=1;strokeColor=default;align=center;verticalAlign=middle;fontFamily=Helvetica;fontSize=11;fontColor=default;labelBackgroundColor=default;edgeStyle=orthogonalEdgeStyle;curved=0;" edge="1" parent="1">
          <mxGeometry width="50" height="50" relative="1" as="geometry">
            <mxPoint x="660" y="169" as="sourcePoint" />
            <mxPoint x="780" y="169" as="targetPoint" />
          </mxGeometry>
        </mxCell>
        <mxCell id="xL6yS0dhDIcAlWwyXvUo-39" value="" style="endArrow=none;html=1;rounded=1;strokeColor=default;align=center;verticalAlign=middle;fontFamily=Helvetica;fontSize=11;fontColor=default;labelBackgroundColor=default;edgeStyle=orthogonalEdgeStyle;curved=0;" edge="1" parent="1">
          <mxGeometry width="50" height="50" relative="1" as="geometry">
            <mxPoint x="660" y="189" as="sourcePoint" />
            <mxPoint x="780" y="189" as="targetPoint" />
          </mxGeometry>
        </mxCell>
        <mxCell id="xL6yS0dhDIcAlWwyXvUo-40" value="" style="endArrow=none;html=1;strokeWidth=2;rounded=1;strokeColor=default;align=center;verticalAlign=middle;fontFamily=Helvetica;fontSize=11;fontColor=default;labelBackgroundColor=default;edgeStyle=orthogonalEdgeStyle;curved=0;opacity=30;" edge="1" parent="1">
          <mxGeometry width="50" height="50" relative="1" as="geometry">
            <mxPoint x="680" y="189" as="sourcePoint" />
            <mxPoint x="680" y="169" as="targetPoint" />
          </mxGeometry>
        </mxCell>
        <mxCell id="xL6yS0dhDIcAlWwyXvUo-41" value="" style="endArrow=none;html=1;strokeWidth=2;rounded=1;strokeColor=default;align=center;verticalAlign=middle;fontFamily=Helvetica;fontSize=11;fontColor=default;labelBackgroundColor=default;edgeStyle=orthogonalEdgeStyle;curved=0;opacity=30;" edge="1" parent="1">
          <mxGeometry width="50" height="50" relative="1" as="geometry">
            <mxPoint x="700" y="189" as="sourcePoint" />
            <mxPoint x="700" y="169" as="targetPoint" />
          </mxGeometry>
        </mxCell>
        <mxCell id="xL6yS0dhDIcAlWwyXvUo-42" value="" style="endArrow=none;html=1;strokeWidth=2;rounded=1;strokeColor=default;align=center;verticalAlign=middle;fontFamily=Helvetica;fontSize=11;fontColor=default;labelBackgroundColor=default;edgeStyle=orthogonalEdgeStyle;curved=0;opacity=30;" edge="1" parent="1">
          <mxGeometry width="50" height="50" relative="1" as="geometry">
            <mxPoint x="720" y="189" as="sourcePoint" />
            <mxPoint x="720" y="169" as="targetPoint" />
          </mxGeometry>
        </mxCell>
        <mxCell id="xL6yS0dhDIcAlWwyXvUo-43" value="" style="endArrow=none;html=1;strokeWidth=2;rounded=1;strokeColor=default;align=center;verticalAlign=middle;fontFamily=Helvetica;fontSize=11;fontColor=default;labelBackgroundColor=default;edgeStyle=orthogonalEdgeStyle;curved=0;opacity=30;" edge="1" parent="1">
          <mxGeometry width="50" height="50" relative="1" as="geometry">
            <mxPoint x="740" y="189" as="sourcePoint" />
            <mxPoint x="740" y="169" as="targetPoint" />
          </mxGeometry>
        </mxCell>
        <mxCell id="xL6yS0dhDIcAlWwyXvUo-44" value="" style="endArrow=none;html=1;strokeWidth=2;rounded=1;strokeColor=default;align=center;verticalAlign=middle;fontFamily=Helvetica;fontSize=11;fontColor=default;labelBackgroundColor=default;edgeStyle=orthogonalEdgeStyle;curved=0;opacity=30;" edge="1" parent="1">
          <mxGeometry width="50" height="50" relative="1" as="geometry">
            <mxPoint x="760" y="189" as="sourcePoint" />
            <mxPoint x="760" y="169" as="targetPoint" />
          </mxGeometry>
        </mxCell>
        <mxCell id="xL6yS0dhDIcAlWwyXvUo-28" value="" style="endArrow=none;html=1;rounded=1;strokeColor=default;align=center;verticalAlign=middle;fontFamily=Helvetica;fontSize=11;fontColor=default;labelBackgroundColor=default;edgeStyle=orthogonalEdgeStyle;curved=0;" edge="1" parent="1">
          <mxGeometry width="50" height="50" relative="1" as="geometry">
            <mxPoint x="220" y="170" as="sourcePoint" />
            <mxPoint x="340" y="170" as="targetPoint" />
          </mxGeometry>
        </mxCell>
        <mxCell id="xL6yS0dhDIcAlWwyXvUo-29" value="" style="endArrow=none;html=1;rounded=1;strokeColor=default;align=center;verticalAlign=middle;fontFamily=Helvetica;fontSize=11;fontColor=default;labelBackgroundColor=default;edgeStyle=orthogonalEdgeStyle;curved=0;" edge="1" parent="1">
          <mxGeometry width="50" height="50" relative="1" as="geometry">
            <mxPoint x="220" y="190" as="sourcePoint" />
            <mxPoint x="340" y="190" as="targetPoint" />
          </mxGeometry>
        </mxCell>
        <mxCell id="xL6yS0dhDIcAlWwyXvUo-30" value="" style="endArrow=none;html=1;strokeWidth=2;rounded=1;strokeColor=default;align=center;verticalAlign=middle;fontFamily=Helvetica;fontSize=11;fontColor=default;labelBackgroundColor=default;edgeStyle=orthogonalEdgeStyle;curved=0;opacity=30;" edge="1" parent="1">
          <mxGeometry width="50" height="50" relative="1" as="geometry">
            <mxPoint x="240" y="190" as="sourcePoint" />
            <mxPoint x="240" y="170" as="targetPoint" />
          </mxGeometry>
        </mxCell>
        <mxCell id="xL6yS0dhDIcAlWwyXvUo-31" value="" style="endArrow=none;html=1;strokeWidth=2;rounded=1;strokeColor=default;align=center;verticalAlign=middle;fontFamily=Helvetica;fontSize=11;fontColor=default;labelBackgroundColor=default;edgeStyle=orthogonalEdgeStyle;curved=0;opacity=30;" edge="1" parent="1">
          <mxGeometry width="50" height="50" relative="1" as="geometry">
            <mxPoint x="260" y="190" as="sourcePoint" />
            <mxPoint x="260" y="170" as="targetPoint" />
          </mxGeometry>
        </mxCell>
        <mxCell id="xL6yS0dhDIcAlWwyXvUo-32" value="" style="endArrow=none;html=1;strokeWidth=2;rounded=1;strokeColor=default;align=center;verticalAlign=middle;fontFamily=Helvetica;fontSize=11;fontColor=default;labelBackgroundColor=default;edgeStyle=orthogonalEdgeStyle;curved=0;opacity=30;" edge="1" parent="1">
          <mxGeometry width="50" height="50" relative="1" as="geometry">
            <mxPoint x="280" y="190" as="sourcePoint" />
            <mxPoint x="280" y="170" as="targetPoint" />
          </mxGeometry>
        </mxCell>
        <mxCell id="xL6yS0dhDIcAlWwyXvUo-33" value="" style="endArrow=none;html=1;strokeWidth=2;rounded=1;strokeColor=default;align=center;verticalAlign=middle;fontFamily=Helvetica;fontSize=11;fontColor=default;labelBackgroundColor=default;edgeStyle=orthogonalEdgeStyle;curved=0;opacity=30;" edge="1" parent="1">
          <mxGeometry width="50" height="50" relative="1" as="geometry">
            <mxPoint x="300" y="190" as="sourcePoint" />
            <mxPoint x="300" y="170" as="targetPoint" />
          </mxGeometry>
        </mxCell>
        <mxCell id="xL6yS0dhDIcAlWwyXvUo-34" value="" style="endArrow=none;html=1;strokeWidth=2;rounded=1;strokeColor=default;align=center;verticalAlign=middle;fontFamily=Helvetica;fontSize=11;fontColor=default;labelBackgroundColor=default;edgeStyle=orthogonalEdgeStyle;curved=0;opacity=30;" edge="1" parent="1">
          <mxGeometry width="50" height="50" relative="1" as="geometry">
            <mxPoint x="320" y="190" as="sourcePoint" />
            <mxPoint x="320" y="170" as="targetPoint" />
          </mxGeometry>
        </mxCell>
        <mxCell id="xL6yS0dhDIcAlWwyXvUo-37" value="" style="rounded=1;whiteSpace=wrap;html=1;fontFamily=Helvetica;fontSize=11;labelBackgroundColor=default;opacity=80;fillColor=#fff2cc;strokeColor=#d6b656;" vertex="1" parent="1">
          <mxGeometry x="300" y="170" width="20" height="20" as="geometry" />
        </mxCell>
      </root>
    </mxGraphModel>
  </diagram>
  <diagram id="Z8dM3pe_3XgAM9D84m1J" name="5. Run">
    <mxGraphModel dx="1100" dy="696" grid="1" gridSize="1" guides="1" tooltips="1" connect="1" arrows="1" fold="1" page="1" pageScale="1" pageWidth="850" pageHeight="1100" math="0" shadow="0">
      <root>
        <mxCell id="0" />
        <mxCell id="1" parent="0" />
        <mxCell id="tpLah3JxDNpu41t7KHnv-1" value="Instantiated Components" style="rounded=1;whiteSpace=wrap;html=1;fontFamily=Helvetica;fontSize=11;fontColor=default;labelBackgroundColor=default;verticalAlign=top;container=1;" vertex="1" parent="1">
          <mxGeometry x="138" y="34" width="380" height="280" as="geometry" />
        </mxCell>
        <mxCell id="tpLah3JxDNpu41t7KHnv-2" value="" style="rounded=1;whiteSpace=wrap;html=1;fontFamily=Helvetica;fontSize=11;fontColor=#333333;labelBackgroundColor=default;dashed=1;dashPattern=1 4;fillColor=#f5f5f5;strokeColor=#666666;opacity=30;" vertex="1" parent="tpLah3JxDNpu41t7KHnv-1">
          <mxGeometry y="43.07692307692307" width="379.99999999999994" height="236.9230769230769" as="geometry" />
        </mxCell>
        <mxCell id="tpLah3JxDNpu41t7KHnv-3" value="" style="rounded=1;whiteSpace=wrap;html=1;fontFamily=Helvetica;fontSize=11;fontColor=#333333;labelBackgroundColor=default;dashed=1;dashPattern=1 4;fillColor=#f5f5f5;strokeColor=#666666;opacity=40;" vertex="1" parent="tpLah3JxDNpu41t7KHnv-1">
          <mxGeometry x="200.55555555555554" y="107.6923076923077" width="168.88888888888886" height="161.53846153846152" as="geometry" />
        </mxCell>
        <mxCell id="tpLah3JxDNpu41t7KHnv-4" value="" style="rounded=1;whiteSpace=wrap;html=1;fontFamily=Helvetica;fontSize=11;fontColor=#333333;labelBackgroundColor=default;dashed=1;dashPattern=1 4;fillColor=#f5f5f5;strokeColor=#666666;opacity=40;" vertex="1" parent="tpLah3JxDNpu41t7KHnv-1">
          <mxGeometry x="10.555555555555554" y="107.6923076923077" width="168.88888888888886" height="161.53846153846152" as="geometry" />
        </mxCell>
        <mxCell id="tpLah3JxDNpu41t7KHnv-5" value="" style="rounded=1;whiteSpace=wrap;html=1;fontFamily=Helvetica;fontSize=11;fontColor=#333333;labelBackgroundColor=default;dashed=1;dashPattern=1 4;fillColor=#f5f5f5;strokeColor=#666666;opacity=60;" vertex="1" parent="tpLah3JxDNpu41t7KHnv-1">
          <mxGeometry x="211.1111111111111" y="172.3076923076923" width="147.77777777777777" height="86.15384615384615" as="geometry" />
        </mxCell>
        <mxCell id="tpLah3JxDNpu41t7KHnv-6" value="" style="rounded=1;whiteSpace=wrap;html=1;fontFamily=Helvetica;fontSize=11;fontColor=#333333;labelBackgroundColor=default;dashed=1;dashPattern=1 4;opacity=60;fillColor=#f5f5f5;strokeColor=#666666;" vertex="1" parent="tpLah3JxDNpu41t7KHnv-1">
          <mxGeometry x="21.111111111111107" y="172.3076923076923" width="147.77777777777777" height="86.15384615384615" as="geometry" />
        </mxCell>
        <mxCell id="tpLah3JxDNpu41t7KHnv-7" style="edgeStyle=orthogonalEdgeStyle;rounded=1;orthogonalLoop=1;jettySize=auto;html=1;exitX=0.25;exitY=1;exitDx=0;exitDy=0;entryX=0.5;entryY=0;entryDx=0;entryDy=0;curved=0;opacity=30;fillColor=#d5e8d4;strokeColor=#82b366;" edge="1" parent="tpLah3JxDNpu41t7KHnv-1" source="tpLah3JxDNpu41t7KHnv-9" target="tpLah3JxDNpu41t7KHnv-11">
          <mxGeometry relative="1" as="geometry" />
        </mxCell>
        <mxCell id="tpLah3JxDNpu41t7KHnv-8" style="edgeStyle=orthogonalEdgeStyle;rounded=1;orthogonalLoop=1;jettySize=auto;html=1;exitX=0.5;exitY=0;exitDx=0;exitDy=0;entryX=0.75;entryY=1;entryDx=0;entryDy=0;curved=0;opacity=30;fillColor=#d5e8d4;strokeColor=#82b366;" edge="1" parent="tpLah3JxDNpu41t7KHnv-1" source="tpLah3JxDNpu41t7KHnv-13" target="tpLah3JxDNpu41t7KHnv-9">
          <mxGeometry relative="1" as="geometry" />
        </mxCell>
        <mxCell id="tpLah3JxDNpu41t7KHnv-9" value="" style="rounded=1;whiteSpace=wrap;html=1;fillColor=#0050ef;fontColor=#ffffff;strokeColor=#001DBC;opacity=30;" vertex="1" parent="tpLah3JxDNpu41t7KHnv-1">
          <mxGeometry x="168.88888888888886" y="32.30769230769231" width="42.222222222222214" height="21.538461538461537" as="geometry" />
        </mxCell>
        <mxCell id="tpLah3JxDNpu41t7KHnv-10" style="edgeStyle=orthogonalEdgeStyle;curved=0;rounded=1;orthogonalLoop=1;jettySize=auto;html=1;exitX=0.25;exitY=1;exitDx=0;exitDy=0;entryX=0.326;entryY=-0.01;entryDx=0;entryDy=0;strokeColor=#82b366;align=center;verticalAlign=middle;fontFamily=Helvetica;fontSize=11;fontColor=default;labelBackgroundColor=default;endArrow=classic;entryPerimeter=0;opacity=30;fillColor=#d5e8d4;" edge="1" parent="tpLah3JxDNpu41t7KHnv-1" source="tpLah3JxDNpu41t7KHnv-11" target="tpLah3JxDNpu41t7KHnv-16">
          <mxGeometry relative="1" as="geometry">
            <Array as="points">
              <mxPoint x="127" y="137" />
              <mxPoint x="88" y="137" />
            </Array>
          </mxGeometry>
        </mxCell>
        <mxCell id="tpLah3JxDNpu41t7KHnv-11" value="" style="rounded=1;whiteSpace=wrap;html=1;fillColor=#0050ef;fontColor=#ffffff;strokeColor=#001DBC;opacity=30;" vertex="1" parent="tpLah3JxDNpu41t7KHnv-1">
          <mxGeometry x="116.11111111111109" y="96.92307692307692" width="42.222222222222214" height="21.538461538461537" as="geometry" />
        </mxCell>
        <mxCell id="tpLah3JxDNpu41t7KHnv-12" style="edgeStyle=orthogonalEdgeStyle;curved=0;rounded=1;orthogonalLoop=1;jettySize=auto;html=1;exitX=0.25;exitY=1;exitDx=0;exitDy=0;entryX=0.25;entryY=0;entryDx=0;entryDy=0;strokeColor=#82b366;align=center;verticalAlign=middle;fontFamily=Helvetica;fontSize=11;fontColor=default;labelBackgroundColor=default;endArrow=classic;opacity=30;fillColor=#d5e8d4;" edge="1" parent="tpLah3JxDNpu41t7KHnv-1" source="tpLah3JxDNpu41t7KHnv-13" target="tpLah3JxDNpu41t7KHnv-21">
          <mxGeometry relative="1" as="geometry">
            <Array as="points">
              <mxPoint x="232" y="145" />
              <mxPoint x="274" y="145" />
            </Array>
          </mxGeometry>
        </mxCell>
        <mxCell id="tpLah3JxDNpu41t7KHnv-13" value="" style="rounded=1;whiteSpace=wrap;html=1;fillColor=#0050ef;fontColor=#ffffff;strokeColor=#001DBC;opacity=30;" vertex="1" parent="tpLah3JxDNpu41t7KHnv-1">
          <mxGeometry x="221.66666666666663" y="96.92307692307692" width="42.222222222222214" height="21.538461538461537" as="geometry" />
        </mxCell>
        <mxCell id="tpLah3JxDNpu41t7KHnv-14" style="edgeStyle=orthogonalEdgeStyle;rounded=1;orthogonalLoop=1;jettySize=auto;html=1;exitX=0.25;exitY=1;exitDx=0;exitDy=0;entryX=0.5;entryY=0;entryDx=0;entryDy=0;curved=0;opacity=30;fillColor=#d5e8d4;strokeColor=#82b366;" edge="1" parent="tpLah3JxDNpu41t7KHnv-1" source="tpLah3JxDNpu41t7KHnv-16" target="tpLah3JxDNpu41t7KHnv-17">
          <mxGeometry relative="1" as="geometry" />
        </mxCell>
        <mxCell id="vRD9TB9j4LECkX6ZEi_d-8" style="edgeStyle=orthogonalEdgeStyle;curved=0;rounded=1;orthogonalLoop=1;jettySize=auto;html=1;exitX=0.75;exitY=0;exitDx=0;exitDy=0;entryX=0.75;entryY=1;entryDx=0;entryDy=0;strokeColor=#82b366;align=center;verticalAlign=middle;fontFamily=Helvetica;fontSize=11;fontColor=default;labelBackgroundColor=default;endArrow=classic;opacity=30;fillColor=#d5e8d4;" edge="1" parent="tpLah3JxDNpu41t7KHnv-1" source="tpLah3JxDNpu41t7KHnv-16" target="tpLah3JxDNpu41t7KHnv-11">
          <mxGeometry relative="1" as="geometry">
            <Array as="points">
              <mxPoint x="106" y="142" />
              <mxPoint x="148" y="142" />
            </Array>
          </mxGeometry>
        </mxCell>
        <mxCell id="tpLah3JxDNpu41t7KHnv-16" value="" style="rounded=1;whiteSpace=wrap;html=1;fillColor=#0050ef;fontColor=#ffffff;strokeColor=#001DBC;opacity=30;" vertex="1" parent="tpLah3JxDNpu41t7KHnv-1">
          <mxGeometry x="73.88888888888889" y="161.53846153846152" width="42.222222222222214" height="21.538461538461537" as="geometry" />
        </mxCell>
        <mxCell id="tpLah3JxDNpu41t7KHnv-17" value="" style="rounded=1;whiteSpace=wrap;html=1;fillColor=#0050ef;fontColor=#ffffff;strokeColor=#001DBC;opacity=30;" vertex="1" parent="tpLah3JxDNpu41t7KHnv-1">
          <mxGeometry x="31.66666666666666" y="226.15384615384613" width="42.222222222222214" height="21.538461538461537" as="geometry" />
        </mxCell>
        <mxCell id="vRD9TB9j4LECkX6ZEi_d-6" style="edgeStyle=orthogonalEdgeStyle;curved=0;rounded=1;orthogonalLoop=1;jettySize=auto;html=1;exitX=0.5;exitY=0;exitDx=0;exitDy=0;entryX=0.75;entryY=1;entryDx=0;entryDy=0;strokeColor=#82b366;align=center;verticalAlign=middle;fontFamily=Helvetica;fontSize=11;fontColor=default;labelBackgroundColor=default;endArrow=classic;opacity=30;fillColor=#d5e8d4;" edge="1" parent="tpLah3JxDNpu41t7KHnv-1" source="tpLah3JxDNpu41t7KHnv-18" target="tpLah3JxDNpu41t7KHnv-16">
          <mxGeometry relative="1" as="geometry" />
        </mxCell>
        <mxCell id="tpLah3JxDNpu41t7KHnv-18" value="" style="rounded=1;whiteSpace=wrap;html=1;fillColor=#0050ef;fontColor=#ffffff;strokeColor=#001DBC;opacity=30;" vertex="1" parent="tpLah3JxDNpu41t7KHnv-1">
          <mxGeometry x="116.11111111111109" y="226.15384615384613" width="42.222222222222214" height="21.538461538461537" as="geometry" />
        </mxCell>
        <mxCell id="tpLah3JxDNpu41t7KHnv-19" style="edgeStyle=orthogonalEdgeStyle;rounded=1;orthogonalLoop=1;jettySize=auto;html=1;exitX=0.25;exitY=1;exitDx=0;exitDy=0;entryX=0.5;entryY=0;entryDx=0;entryDy=0;curved=0;opacity=30;fillColor=#d5e8d4;strokeColor=#82b366;" edge="1" parent="tpLah3JxDNpu41t7KHnv-1" source="tpLah3JxDNpu41t7KHnv-21" target="tpLah3JxDNpu41t7KHnv-22">
          <mxGeometry relative="1" as="geometry" />
        </mxCell>
        <mxCell id="tpLah3JxDNpu41t7KHnv-21" value="" style="rounded=1;whiteSpace=wrap;html=1;fillColor=#0050ef;fontColor=#ffffff;strokeColor=#001DBC;opacity=30;" vertex="1" parent="tpLah3JxDNpu41t7KHnv-1">
          <mxGeometry x="263.88888888888886" y="161.53846153846152" width="42.222222222222214" height="21.538461538461537" as="geometry" />
        </mxCell>
        <mxCell id="tpLah3JxDNpu41t7KHnv-22" value="" style="rounded=1;whiteSpace=wrap;html=1;fillColor=#0050ef;fontColor=#ffffff;strokeColor=#001DBC;opacity=30;" vertex="1" parent="tpLah3JxDNpu41t7KHnv-1">
          <mxGeometry x="221.66666666666663" y="226.15384615384613" width="42.222222222222214" height="21.538461538461537" as="geometry" />
        </mxCell>
        <mxCell id="vRD9TB9j4LECkX6ZEi_d-25" style="edgeStyle=orthogonalEdgeStyle;curved=0;rounded=1;orthogonalLoop=1;jettySize=auto;html=1;exitX=0.5;exitY=0;exitDx=0;exitDy=0;entryX=0.75;entryY=1;entryDx=0;entryDy=0;strokeColor=#82b366;align=center;verticalAlign=middle;fontFamily=Helvetica;fontSize=11;fontColor=default;labelBackgroundColor=default;endArrow=classic;fillColor=#d5e8d4;opacity=30;" edge="1" parent="tpLah3JxDNpu41t7KHnv-1" source="tpLah3JxDNpu41t7KHnv-23" target="tpLah3JxDNpu41t7KHnv-21">
          <mxGeometry relative="1" as="geometry" />
        </mxCell>
        <mxCell id="tpLah3JxDNpu41t7KHnv-23" value="" style="rounded=1;whiteSpace=wrap;html=1;fillColor=#0050ef;fontColor=#ffffff;strokeColor=#001DBC;opacity=30;" vertex="1" parent="tpLah3JxDNpu41t7KHnv-1">
          <mxGeometry x="306.1111111111111" y="226.15384615384613" width="42.222222222222214" height="21.538461538461537" as="geometry" />
        </mxCell>
        <mxCell id="tpLah3JxDNpu41t7KHnv-49" value="" style="rounded=1;whiteSpace=wrap;html=1;fontFamily=Helvetica;fontSize=11;labelBackgroundColor=default;opacity=30;arcSize=0;" vertex="1" parent="tpLah3JxDNpu41t7KHnv-1">
          <mxGeometry x="27.000000000000014" y="231.91999999999996" width="10" height="10" as="geometry" />
        </mxCell>
        <mxCell id="tpLah3JxDNpu41t7KHnv-50" value="" style="rounded=1;whiteSpace=wrap;html=1;fontFamily=Helvetica;fontSize=11;labelBackgroundColor=default;opacity=30;arcSize=0;" vertex="1" parent="tpLah3JxDNpu41t7KHnv-1">
          <mxGeometry x="37.000000000000014" y="231.91999999999996" width="10" height="10" as="geometry" />
        </mxCell>
        <mxCell id="tpLah3JxDNpu41t7KHnv-51" value="" style="rounded=1;whiteSpace=wrap;html=1;fontFamily=Helvetica;fontSize=11;labelBackgroundColor=default;opacity=30;arcSize=0;" vertex="1" parent="tpLah3JxDNpu41t7KHnv-1">
          <mxGeometry x="110" y="231.91999999999996" width="10" height="10" as="geometry" />
        </mxCell>
        <mxCell id="vRD9TB9j4LECkX6ZEi_d-7" style="edgeStyle=orthogonalEdgeStyle;curved=0;rounded=1;orthogonalLoop=1;jettySize=auto;html=1;exitX=1;exitY=0.5;exitDx=0;exitDy=0;strokeColor=#82b366;align=center;verticalAlign=middle;fontFamily=Helvetica;fontSize=11;fontColor=default;labelBackgroundColor=default;endArrow=classic;entryX=0;entryY=0.5;entryDx=0;entryDy=0;opacity=30;fillColor=#d5e8d4;" edge="1" parent="tpLah3JxDNpu41t7KHnv-1" source="tpLah3JxDNpu41t7KHnv-52" target="tpLah3JxDNpu41t7KHnv-51">
          <mxGeometry relative="1" as="geometry" />
        </mxCell>
        <mxCell id="tpLah3JxDNpu41t7KHnv-52" value="" style="rounded=1;whiteSpace=wrap;html=1;fontFamily=Helvetica;fontSize=11;labelBackgroundColor=default;fillColor=#1ba1e2;strokeColor=#006EAF;opacity=50;arcSize=0;fontColor=#ffffff;" vertex="1" parent="tpLah3JxDNpu41t7KHnv-1">
          <mxGeometry x="67.99999999999999" y="231.91999999999996" width="10" height="10" as="geometry" />
        </mxCell>
        <mxCell id="vRD9TB9j4LECkX6ZEi_d-4" value="" style="rounded=1;whiteSpace=wrap;html=1;fontFamily=Helvetica;fontSize=11;labelBackgroundColor=default;fillColor=#1ba1e2;strokeColor=#006EAF;opacity=50;arcSize=0;fontColor=#ffffff;" vertex="1" parent="tpLah3JxDNpu41t7KHnv-1">
          <mxGeometry x="143" y="231.91999999999996" width="10" height="10" as="geometry" />
        </mxCell>
        <mxCell id="vRD9TB9j4LECkX6ZEi_d-5" value="" style="rounded=1;whiteSpace=wrap;html=1;fontFamily=Helvetica;fontSize=11;labelBackgroundColor=default;fillColor=#1ba1e2;strokeColor=#006EAF;opacity=50;arcSize=0;fontColor=#ffffff;" vertex="1" parent="tpLah3JxDNpu41t7KHnv-1">
          <mxGeometry x="154" y="231.91999999999996" width="10" height="10" as="geometry" />
        </mxCell>
        <mxCell id="vRD9TB9j4LECkX6ZEi_d-9" value="" style="rounded=1;whiteSpace=wrap;html=1;fontFamily=Helvetica;fontSize=11;labelBackgroundColor=default;fillColor=#1ba1e2;strokeColor=#006EAF;opacity=50;arcSize=0;fontColor=#ffffff;" vertex="1" parent="tpLah3JxDNpu41t7KHnv-1">
          <mxGeometry x="110" y="167.30999999999995" width="10" height="10" as="geometry" />
        </mxCell>
        <mxCell id="vRD9TB9j4LECkX6ZEi_d-10" value="" style="rounded=1;whiteSpace=wrap;html=1;fontFamily=Helvetica;fontSize=11;labelBackgroundColor=default;fillColor=#1ba1e2;strokeColor=#006EAF;opacity=50;arcSize=0;fontColor=#ffffff;" vertex="1" parent="tpLah3JxDNpu41t7KHnv-1">
          <mxGeometry x="152" y="102.68999999999994" width="10" height="10" as="geometry" />
        </mxCell>
        <mxCell id="vRD9TB9j4LECkX6ZEi_d-11" value="" style="rounded=1;whiteSpace=wrap;html=1;fontFamily=Helvetica;fontSize=11;labelBackgroundColor=default;fillColor=#1ba1e2;strokeColor=#006EAF;opacity=50;arcSize=0;fontColor=#ffffff;" vertex="1" parent="tpLah3JxDNpu41t7KHnv-1">
          <mxGeometry x="258" y="101.99999999999994" width="10" height="10" as="geometry" />
        </mxCell>
        <mxCell id="vRD9TB9j4LECkX6ZEi_d-12" value="" style="rounded=1;whiteSpace=wrap;html=1;fontFamily=Helvetica;fontSize=11;labelBackgroundColor=default;fillColor=#1ba1e2;strokeColor=#006EAF;opacity=50;arcSize=0;fontColor=#ffffff;" vertex="1" parent="tpLah3JxDNpu41t7KHnv-1">
          <mxGeometry x="300" y="167.30999999999995" width="10" height="10" as="geometry" />
        </mxCell>
        <mxCell id="vRD9TB9j4LECkX6ZEi_d-13" value="" style="rounded=1;whiteSpace=wrap;html=1;fontFamily=Helvetica;fontSize=11;labelBackgroundColor=default;fillColor=#1ba1e2;strokeColor=#006EAF;opacity=50;arcSize=0;fontColor=#ffffff;" vertex="1" parent="tpLah3JxDNpu41t7KHnv-1">
          <mxGeometry x="259" y="231.99999999999994" width="10" height="10" as="geometry" />
        </mxCell>
        <mxCell id="vRD9TB9j4LECkX6ZEi_d-14" value="" style="rounded=1;whiteSpace=wrap;html=1;fontFamily=Helvetica;fontSize=11;labelBackgroundColor=default;fillColor=#1ba1e2;strokeColor=#006EAF;opacity=50;arcSize=0;fontColor=#ffffff;" vertex="1" parent="tpLah3JxDNpu41t7KHnv-1">
          <mxGeometry x="343" y="231.99999999999994" width="10" height="10" as="geometry" />
        </mxCell>
        <mxCell id="vRD9TB9j4LECkX6ZEi_d-15" value="" style="rounded=1;whiteSpace=wrap;html=1;fontFamily=Helvetica;fontSize=11;labelBackgroundColor=default;fillColor=#1ba1e2;strokeColor=#006EAF;opacity=50;arcSize=0;fontColor=#ffffff;" vertex="1" parent="tpLah3JxDNpu41t7KHnv-1">
          <mxGeometry x="206" y="38.079999999999956" width="10" height="10" as="geometry" />
        </mxCell>
        <mxCell id="vRD9TB9j4LECkX6ZEi_d-16" value="" style="rounded=1;whiteSpace=wrap;html=1;fontFamily=Helvetica;fontSize=11;labelBackgroundColor=default;opacity=30;arcSize=0;" vertex="1" parent="tpLah3JxDNpu41t7KHnv-1">
          <mxGeometry x="69" y="167.99999999999994" width="10" height="10" as="geometry" />
        </mxCell>
        <mxCell id="vRD9TB9j4LECkX6ZEi_d-17" value="" style="rounded=1;whiteSpace=wrap;html=1;fontFamily=Helvetica;fontSize=11;labelBackgroundColor=default;opacity=30;arcSize=0;" vertex="1" parent="tpLah3JxDNpu41t7KHnv-1">
          <mxGeometry x="111" y="102.68999999999994" width="10" height="10" as="geometry" />
        </mxCell>
        <mxCell id="vRD9TB9j4LECkX6ZEi_d-18" value="" style="rounded=1;whiteSpace=wrap;html=1;fontFamily=Helvetica;fontSize=11;labelBackgroundColor=default;opacity=30;arcSize=0;" vertex="1" parent="tpLah3JxDNpu41t7KHnv-1">
          <mxGeometry x="164" y="38.07999999999994" width="10" height="10" as="geometry" />
        </mxCell>
        <mxCell id="vRD9TB9j4LECkX6ZEi_d-19" value="" style="rounded=1;whiteSpace=wrap;html=1;fontFamily=Helvetica;fontSize=11;labelBackgroundColor=default;opacity=30;arcSize=0;" vertex="1" parent="tpLah3JxDNpu41t7KHnv-1">
          <mxGeometry x="216" y="102.68999999999994" width="10" height="10" as="geometry" />
        </mxCell>
        <mxCell id="vRD9TB9j4LECkX6ZEi_d-20" value="" style="rounded=1;whiteSpace=wrap;html=1;fontFamily=Helvetica;fontSize=11;labelBackgroundColor=default;opacity=30;arcSize=0;" vertex="1" parent="tpLah3JxDNpu41t7KHnv-1">
          <mxGeometry x="259" y="167.30999999999995" width="10" height="10" as="geometry" />
        </mxCell>
        <mxCell id="vRD9TB9j4LECkX6ZEi_d-21" value="" style="rounded=1;whiteSpace=wrap;html=1;fontFamily=Helvetica;fontSize=11;labelBackgroundColor=default;opacity=30;arcSize=0;" vertex="1" parent="tpLah3JxDNpu41t7KHnv-1">
          <mxGeometry x="216" y="231.99999999999994" width="10" height="10" as="geometry" />
        </mxCell>
        <mxCell id="vRD9TB9j4LECkX6ZEi_d-22" value="" style="rounded=1;whiteSpace=wrap;html=1;fontFamily=Helvetica;fontSize=11;labelBackgroundColor=default;opacity=30;arcSize=0;" vertex="1" parent="tpLah3JxDNpu41t7KHnv-1">
          <mxGeometry x="301" y="231.91999999999996" width="10" height="10" as="geometry" />
        </mxCell>
        <mxCell id="vRD9TB9j4LECkX6ZEi_d-26" style="edgeStyle=orthogonalEdgeStyle;curved=0;rounded=1;orthogonalLoop=1;jettySize=auto;html=1;exitX=0.75;exitY=0;exitDx=0;exitDy=0;entryX=0.75;entryY=1;entryDx=0;entryDy=0;strokeColor=#82b366;align=center;verticalAlign=middle;fontFamily=Helvetica;fontSize=11;fontColor=default;labelBackgroundColor=default;endArrow=classic;opacity=30;fillColor=#d5e8d4;" edge="1" parent="tpLah3JxDNpu41t7KHnv-1" source="tpLah3JxDNpu41t7KHnv-21" target="tpLah3JxDNpu41t7KHnv-13">
          <mxGeometry relative="1" as="geometry">
            <mxPoint x="233" y="119" as="sourcePoint" />
            <mxPoint x="275" y="163" as="targetPoint" />
          </mxGeometry>
        </mxCell>
        <mxCell id="vRD9TB9j4LECkX6ZEi_d-27" style="edgeStyle=orthogonalEdgeStyle;curved=0;rounded=1;orthogonalLoop=1;jettySize=auto;html=1;exitX=0.097;exitY=0.2;exitDx=0;exitDy=0;entryX=0;entryY=0.5;entryDx=0;entryDy=0;strokeColor=#82b366;align=center;verticalAlign=middle;fontFamily=Helvetica;fontSize=11;fontColor=default;labelBackgroundColor=default;endArrow=classic;opacity=30;fillColor=#d5e8d4;exitPerimeter=0;" edge="1" parent="tpLah3JxDNpu41t7KHnv-1" source="tpLah3JxDNpu41t7KHnv-4" target="vRD9TB9j4LECkX6ZEi_d-18">
          <mxGeometry relative="1" as="geometry">
            <mxPoint x="234" y="120" as="sourcePoint" />
            <mxPoint x="276" y="164" as="targetPoint" />
            <Array as="points">
              <mxPoint x="48" y="140" />
              <mxPoint x="48" y="62" />
              <mxPoint x="110" y="62" />
              <mxPoint x="110" y="43" />
            </Array>
          </mxGeometry>
        </mxCell>
        <mxCell id="vRD9TB9j4LECkX6ZEi_d-29" style="edgeStyle=orthogonalEdgeStyle;curved=0;rounded=1;orthogonalLoop=1;jettySize=auto;html=1;exitX=1;exitY=0.5;exitDx=0;exitDy=0;strokeColor=#82b366;align=center;verticalAlign=middle;fontFamily=Helvetica;fontSize=11;fontColor=default;labelBackgroundColor=default;endArrow=classic;fillColor=#d5e8d4;opacity=30;entryX=0.885;entryY=0.2;entryDx=0;entryDy=0;entryPerimeter=0;" edge="1" parent="tpLah3JxDNpu41t7KHnv-1" source="vRD9TB9j4LECkX6ZEi_d-15" target="tpLah3JxDNpu41t7KHnv-3">
          <mxGeometry relative="1" as="geometry">
            <mxPoint x="352" y="138" as="targetPoint" />
            <Array as="points">
              <mxPoint x="273" y="43" />
              <mxPoint x="273" y="61" />
              <mxPoint x="327" y="61" />
              <mxPoint x="327" y="140" />
            </Array>
          </mxGeometry>
        </mxCell>
        <mxCell id="tpLah3JxDNpu41t7KHnv-24" value="" style="endArrow=none;html=1;rounded=1;strokeColor=default;align=center;verticalAlign=middle;fontFamily=Helvetica;fontSize=11;fontColor=default;labelBackgroundColor=default;edgeStyle=orthogonalEdgeStyle;curved=0;" edge="1" parent="1">
          <mxGeometry width="50" height="50" relative="1" as="geometry">
            <mxPoint x="48" y="164" as="sourcePoint" />
            <mxPoint x="168" y="164" as="targetPoint" />
          </mxGeometry>
        </mxCell>
        <mxCell id="tpLah3JxDNpu41t7KHnv-25" value="" style="endArrow=none;html=1;rounded=1;strokeColor=default;align=center;verticalAlign=middle;fontFamily=Helvetica;fontSize=11;fontColor=default;labelBackgroundColor=default;edgeStyle=orthogonalEdgeStyle;curved=0;" edge="1" parent="1">
          <mxGeometry width="50" height="50" relative="1" as="geometry">
            <mxPoint x="48" y="184" as="sourcePoint" />
            <mxPoint x="168" y="184" as="targetPoint" />
          </mxGeometry>
        </mxCell>
        <mxCell id="tpLah3JxDNpu41t7KHnv-26" value="" style="endArrow=none;html=1;strokeWidth=2;rounded=1;strokeColor=default;align=center;verticalAlign=middle;fontFamily=Helvetica;fontSize=11;fontColor=default;labelBackgroundColor=default;edgeStyle=orthogonalEdgeStyle;curved=0;opacity=30;" edge="1" parent="1">
          <mxGeometry width="50" height="50" relative="1" as="geometry">
            <mxPoint x="68" y="184" as="sourcePoint" />
            <mxPoint x="68" y="164" as="targetPoint" />
          </mxGeometry>
        </mxCell>
        <mxCell id="tpLah3JxDNpu41t7KHnv-27" value="" style="endArrow=none;html=1;strokeWidth=2;rounded=1;strokeColor=default;align=center;verticalAlign=middle;fontFamily=Helvetica;fontSize=11;fontColor=default;labelBackgroundColor=default;edgeStyle=orthogonalEdgeStyle;curved=0;opacity=30;" edge="1" parent="1">
          <mxGeometry width="50" height="50" relative="1" as="geometry">
            <mxPoint x="88" y="184" as="sourcePoint" />
            <mxPoint x="88" y="164" as="targetPoint" />
          </mxGeometry>
        </mxCell>
        <mxCell id="tpLah3JxDNpu41t7KHnv-28" value="" style="endArrow=none;html=1;strokeWidth=2;rounded=1;strokeColor=default;align=center;verticalAlign=middle;fontFamily=Helvetica;fontSize=11;fontColor=default;labelBackgroundColor=default;edgeStyle=orthogonalEdgeStyle;curved=0;opacity=30;" edge="1" parent="1">
          <mxGeometry width="50" height="50" relative="1" as="geometry">
            <mxPoint x="108" y="184" as="sourcePoint" />
            <mxPoint x="108" y="164" as="targetPoint" />
          </mxGeometry>
        </mxCell>
        <mxCell id="tpLah3JxDNpu41t7KHnv-29" value="" style="endArrow=none;html=1;strokeWidth=2;rounded=1;strokeColor=default;align=center;verticalAlign=middle;fontFamily=Helvetica;fontSize=11;fontColor=default;labelBackgroundColor=default;edgeStyle=orthogonalEdgeStyle;curved=0;opacity=30;" edge="1" parent="1">
          <mxGeometry width="50" height="50" relative="1" as="geometry">
            <mxPoint x="128" y="184" as="sourcePoint" />
            <mxPoint x="128" y="164" as="targetPoint" />
          </mxGeometry>
        </mxCell>
        <mxCell id="tpLah3JxDNpu41t7KHnv-30" value="" style="endArrow=none;html=1;strokeWidth=2;rounded=1;strokeColor=default;align=center;verticalAlign=middle;fontFamily=Helvetica;fontSize=11;fontColor=default;labelBackgroundColor=default;edgeStyle=orthogonalEdgeStyle;curved=0;opacity=30;" edge="1" parent="1">
          <mxGeometry width="50" height="50" relative="1" as="geometry">
            <mxPoint x="148" y="184" as="sourcePoint" />
            <mxPoint x="148" y="164" as="targetPoint" />
          </mxGeometry>
        </mxCell>
        <mxCell id="tpLah3JxDNpu41t7KHnv-34" value="" style="endArrow=none;html=1;rounded=1;strokeColor=default;align=center;verticalAlign=middle;fontFamily=Helvetica;fontSize=11;fontColor=default;labelBackgroundColor=default;edgeStyle=orthogonalEdgeStyle;curved=0;" edge="1" parent="1">
          <mxGeometry width="50" height="50" relative="1" as="geometry">
            <mxPoint x="488" y="165" as="sourcePoint" />
            <mxPoint x="608" y="165" as="targetPoint" />
          </mxGeometry>
        </mxCell>
        <mxCell id="tpLah3JxDNpu41t7KHnv-35" value="" style="endArrow=none;html=1;rounded=1;strokeColor=default;align=center;verticalAlign=middle;fontFamily=Helvetica;fontSize=11;fontColor=default;labelBackgroundColor=default;edgeStyle=orthogonalEdgeStyle;curved=0;" edge="1" parent="1">
          <mxGeometry width="50" height="50" relative="1" as="geometry">
            <mxPoint x="488" y="185" as="sourcePoint" />
            <mxPoint x="608" y="185" as="targetPoint" />
          </mxGeometry>
        </mxCell>
        <mxCell id="tpLah3JxDNpu41t7KHnv-36" value="" style="endArrow=none;html=1;strokeWidth=2;rounded=1;strokeColor=default;align=center;verticalAlign=middle;fontFamily=Helvetica;fontSize=11;fontColor=default;labelBackgroundColor=default;edgeStyle=orthogonalEdgeStyle;curved=0;opacity=30;" edge="1" parent="1">
          <mxGeometry width="50" height="50" relative="1" as="geometry">
            <mxPoint x="508" y="185" as="sourcePoint" />
            <mxPoint x="508" y="165" as="targetPoint" />
          </mxGeometry>
        </mxCell>
        <mxCell id="tpLah3JxDNpu41t7KHnv-37" value="" style="endArrow=none;html=1;strokeWidth=2;rounded=1;strokeColor=default;align=center;verticalAlign=middle;fontFamily=Helvetica;fontSize=11;fontColor=default;labelBackgroundColor=default;edgeStyle=orthogonalEdgeStyle;curved=0;opacity=30;" edge="1" parent="1">
          <mxGeometry width="50" height="50" relative="1" as="geometry">
            <mxPoint x="528" y="185" as="sourcePoint" />
            <mxPoint x="528" y="165" as="targetPoint" />
          </mxGeometry>
        </mxCell>
        <mxCell id="tpLah3JxDNpu41t7KHnv-38" value="" style="endArrow=none;html=1;strokeWidth=2;rounded=1;strokeColor=default;align=center;verticalAlign=middle;fontFamily=Helvetica;fontSize=11;fontColor=default;labelBackgroundColor=default;edgeStyle=orthogonalEdgeStyle;curved=0;opacity=30;" edge="1" parent="1">
          <mxGeometry width="50" height="50" relative="1" as="geometry">
            <mxPoint x="548" y="185" as="sourcePoint" />
            <mxPoint x="548" y="165" as="targetPoint" />
          </mxGeometry>
        </mxCell>
        <mxCell id="tpLah3JxDNpu41t7KHnv-39" value="" style="endArrow=none;html=1;strokeWidth=2;rounded=1;strokeColor=default;align=center;verticalAlign=middle;fontFamily=Helvetica;fontSize=11;fontColor=default;labelBackgroundColor=default;edgeStyle=orthogonalEdgeStyle;curved=0;opacity=30;" edge="1" parent="1">
          <mxGeometry width="50" height="50" relative="1" as="geometry">
            <mxPoint x="568" y="185" as="sourcePoint" />
            <mxPoint x="568" y="165" as="targetPoint" />
          </mxGeometry>
        </mxCell>
        <mxCell id="tpLah3JxDNpu41t7KHnv-40" value="" style="endArrow=none;html=1;strokeWidth=2;rounded=1;strokeColor=default;align=center;verticalAlign=middle;fontFamily=Helvetica;fontSize=11;fontColor=default;labelBackgroundColor=default;edgeStyle=orthogonalEdgeStyle;curved=0;opacity=30;" edge="1" parent="1">
          <mxGeometry width="50" height="50" relative="1" as="geometry">
            <mxPoint x="588" y="185" as="sourcePoint" />
            <mxPoint x="588" y="165" as="targetPoint" />
          </mxGeometry>
        </mxCell>
      </root>
    </mxGraphModel>
  </diagram>
  <diagram name="6. Display Outputs" id="e_SqcPV7gXin6bVAerEl">
    <mxGraphModel dx="1100" dy="696" grid="1" gridSize="5" guides="1" tooltips="1" connect="1" arrows="1" fold="1" page="1" pageScale="1" pageWidth="850" pageHeight="1100" math="0" shadow="0">
      <root>
        <mxCell id="TMr_2HQ8tbegMvJpfILP-0" />
        <mxCell id="TMr_2HQ8tbegMvJpfILP-1" parent="TMr_2HQ8tbegMvJpfILP-0" />
        <mxCell id="TMr_2HQ8tbegMvJpfILP-2" value="Instantiated Components" style="rounded=1;whiteSpace=wrap;html=1;fontFamily=Helvetica;fontSize=11;fontColor=default;labelBackgroundColor=default;verticalAlign=top;container=1;" vertex="1" parent="TMr_2HQ8tbegMvJpfILP-1">
          <mxGeometry x="138" y="34" width="380" height="280" as="geometry" />
        </mxCell>
        <mxCell id="TMr_2HQ8tbegMvJpfILP-3" value="" style="rounded=1;whiteSpace=wrap;html=1;fontFamily=Helvetica;fontSize=11;fontColor=#333333;labelBackgroundColor=default;dashed=1;dashPattern=1 4;fillColor=#f5f5f5;strokeColor=#666666;opacity=30;" vertex="1" parent="TMr_2HQ8tbegMvJpfILP-2">
          <mxGeometry y="43.07692307692307" width="379.99999999999994" height="236.9230769230769" as="geometry" />
        </mxCell>
        <mxCell id="TMr_2HQ8tbegMvJpfILP-4" value="" style="rounded=1;whiteSpace=wrap;html=1;fontFamily=Helvetica;fontSize=11;fontColor=#333333;labelBackgroundColor=default;dashed=1;dashPattern=1 4;fillColor=#f5f5f5;strokeColor=#666666;opacity=40;" vertex="1" parent="TMr_2HQ8tbegMvJpfILP-2">
          <mxGeometry x="200.55555555555554" y="107.6923076923077" width="168.88888888888886" height="161.53846153846152" as="geometry" />
        </mxCell>
        <mxCell id="TMr_2HQ8tbegMvJpfILP-5" value="" style="rounded=1;whiteSpace=wrap;html=1;fontFamily=Helvetica;fontSize=11;fontColor=#333333;labelBackgroundColor=default;dashed=1;dashPattern=1 4;fillColor=#f5f5f5;strokeColor=#666666;opacity=40;" vertex="1" parent="TMr_2HQ8tbegMvJpfILP-2">
          <mxGeometry x="10.555555555555554" y="107.6923076923077" width="168.88888888888886" height="161.53846153846152" as="geometry" />
        </mxCell>
        <mxCell id="TMr_2HQ8tbegMvJpfILP-6" value="" style="rounded=1;whiteSpace=wrap;html=1;fontFamily=Helvetica;fontSize=11;fontColor=#333333;labelBackgroundColor=default;dashed=1;dashPattern=1 4;fillColor=#f5f5f5;strokeColor=#666666;opacity=60;" vertex="1" parent="TMr_2HQ8tbegMvJpfILP-2">
          <mxGeometry x="211.1111111111111" y="172.3076923076923" width="147.77777777777777" height="86.15384615384615" as="geometry" />
        </mxCell>
        <mxCell id="TMr_2HQ8tbegMvJpfILP-7" value="" style="rounded=1;whiteSpace=wrap;html=1;fontFamily=Helvetica;fontSize=11;fontColor=#333333;labelBackgroundColor=default;dashed=1;dashPattern=1 4;opacity=60;fillColor=#f5f5f5;strokeColor=#666666;" vertex="1" parent="TMr_2HQ8tbegMvJpfILP-2">
          <mxGeometry x="21.111111111111107" y="172.3076923076923" width="147.77777777777777" height="86.15384615384615" as="geometry" />
        </mxCell>
        <mxCell id="TMr_2HQ8tbegMvJpfILP-8" style="edgeStyle=orthogonalEdgeStyle;rounded=1;orthogonalLoop=1;jettySize=auto;html=1;exitX=0.25;exitY=1;exitDx=0;exitDy=0;entryX=0.5;entryY=0;entryDx=0;entryDy=0;curved=0;opacity=30;fillColor=#d5e8d4;strokeColor=#82b366;" edge="1" parent="TMr_2HQ8tbegMvJpfILP-2" source="TMr_2HQ8tbegMvJpfILP-10" target="TMr_2HQ8tbegMvJpfILP-12">
          <mxGeometry relative="1" as="geometry" />
        </mxCell>
        <mxCell id="TMr_2HQ8tbegMvJpfILP-9" style="edgeStyle=orthogonalEdgeStyle;rounded=1;orthogonalLoop=1;jettySize=auto;html=1;exitX=0.5;exitY=0;exitDx=0;exitDy=0;entryX=0.75;entryY=1;entryDx=0;entryDy=0;curved=0;opacity=30;fillColor=#d5e8d4;strokeColor=#82b366;" edge="1" parent="TMr_2HQ8tbegMvJpfILP-2" source="TMr_2HQ8tbegMvJpfILP-14" target="TMr_2HQ8tbegMvJpfILP-10">
          <mxGeometry relative="1" as="geometry" />
        </mxCell>
        <mxCell id="TMr_2HQ8tbegMvJpfILP-10" value="" style="rounded=1;whiteSpace=wrap;html=1;fillColor=#0050ef;fontColor=#ffffff;strokeColor=#001DBC;opacity=30;" vertex="1" parent="TMr_2HQ8tbegMvJpfILP-2">
          <mxGeometry x="168.88888888888886" y="32.30769230769231" width="42.222222222222214" height="21.538461538461537" as="geometry" />
        </mxCell>
        <mxCell id="TMr_2HQ8tbegMvJpfILP-11" style="edgeStyle=orthogonalEdgeStyle;curved=0;rounded=1;orthogonalLoop=1;jettySize=auto;html=1;exitX=0.25;exitY=1;exitDx=0;exitDy=0;entryX=0.326;entryY=-0.01;entryDx=0;entryDy=0;strokeColor=#82b366;align=center;verticalAlign=middle;fontFamily=Helvetica;fontSize=11;fontColor=default;labelBackgroundColor=default;endArrow=classic;entryPerimeter=0;opacity=30;fillColor=#d5e8d4;" edge="1" parent="TMr_2HQ8tbegMvJpfILP-2" source="TMr_2HQ8tbegMvJpfILP-12" target="TMr_2HQ8tbegMvJpfILP-17">
          <mxGeometry relative="1" as="geometry">
            <Array as="points">
              <mxPoint x="127" y="137" />
              <mxPoint x="88" y="137" />
            </Array>
          </mxGeometry>
        </mxCell>
        <mxCell id="TMr_2HQ8tbegMvJpfILP-12" value="" style="rounded=1;whiteSpace=wrap;html=1;fillColor=#0050ef;fontColor=#ffffff;strokeColor=#001DBC;opacity=30;" vertex="1" parent="TMr_2HQ8tbegMvJpfILP-2">
          <mxGeometry x="116.11111111111109" y="96.92307692307692" width="42.222222222222214" height="21.538461538461537" as="geometry" />
        </mxCell>
        <mxCell id="TMr_2HQ8tbegMvJpfILP-13" style="edgeStyle=orthogonalEdgeStyle;curved=0;rounded=1;orthogonalLoop=1;jettySize=auto;html=1;exitX=0.25;exitY=1;exitDx=0;exitDy=0;entryX=0.25;entryY=0;entryDx=0;entryDy=0;strokeColor=#82b366;align=center;verticalAlign=middle;fontFamily=Helvetica;fontSize=11;fontColor=default;labelBackgroundColor=default;endArrow=classic;opacity=30;fillColor=#d5e8d4;" edge="1" parent="TMr_2HQ8tbegMvJpfILP-2" source="TMr_2HQ8tbegMvJpfILP-14" target="TMr_2HQ8tbegMvJpfILP-22">
          <mxGeometry relative="1" as="geometry">
            <Array as="points">
              <mxPoint x="232" y="145" />
              <mxPoint x="274" y="145" />
            </Array>
          </mxGeometry>
        </mxCell>
        <mxCell id="TMr_2HQ8tbegMvJpfILP-14" value="" style="rounded=1;whiteSpace=wrap;html=1;fillColor=#0050ef;fontColor=#ffffff;strokeColor=#001DBC;opacity=30;" vertex="1" parent="TMr_2HQ8tbegMvJpfILP-2">
          <mxGeometry x="221.66666666666663" y="96.92307692307692" width="42.222222222222214" height="21.538461538461537" as="geometry" />
        </mxCell>
        <mxCell id="TMr_2HQ8tbegMvJpfILP-15" style="edgeStyle=orthogonalEdgeStyle;rounded=1;orthogonalLoop=1;jettySize=auto;html=1;exitX=0.25;exitY=1;exitDx=0;exitDy=0;entryX=0.5;entryY=0;entryDx=0;entryDy=0;curved=0;opacity=30;fillColor=#d5e8d4;strokeColor=#82b366;" edge="1" parent="TMr_2HQ8tbegMvJpfILP-2" source="TMr_2HQ8tbegMvJpfILP-17" target="TMr_2HQ8tbegMvJpfILP-18">
          <mxGeometry relative="1" as="geometry" />
        </mxCell>
        <mxCell id="TMr_2HQ8tbegMvJpfILP-16" style="edgeStyle=orthogonalEdgeStyle;curved=0;rounded=1;orthogonalLoop=1;jettySize=auto;html=1;exitX=0.75;exitY=0;exitDx=0;exitDy=0;entryX=0.75;entryY=1;entryDx=0;entryDy=0;strokeColor=#82b366;align=center;verticalAlign=middle;fontFamily=Helvetica;fontSize=11;fontColor=default;labelBackgroundColor=default;endArrow=classic;opacity=30;fillColor=#d5e8d4;" edge="1" parent="TMr_2HQ8tbegMvJpfILP-2" source="TMr_2HQ8tbegMvJpfILP-17" target="TMr_2HQ8tbegMvJpfILP-12">
          <mxGeometry relative="1" as="geometry">
            <Array as="points">
              <mxPoint x="106" y="142" />
              <mxPoint x="148" y="142" />
            </Array>
          </mxGeometry>
        </mxCell>
        <mxCell id="TMr_2HQ8tbegMvJpfILP-17" value="" style="rounded=1;whiteSpace=wrap;html=1;fillColor=#0050ef;fontColor=#ffffff;strokeColor=#001DBC;opacity=30;" vertex="1" parent="TMr_2HQ8tbegMvJpfILP-2">
          <mxGeometry x="73.88888888888889" y="161.53846153846152" width="42.222222222222214" height="21.538461538461537" as="geometry" />
        </mxCell>
        <mxCell id="TMr_2HQ8tbegMvJpfILP-18" value="" style="rounded=1;whiteSpace=wrap;html=1;fillColor=#0050ef;fontColor=#ffffff;strokeColor=#001DBC;opacity=30;" vertex="1" parent="TMr_2HQ8tbegMvJpfILP-2">
          <mxGeometry x="31.66666666666666" y="226.15384615384613" width="42.222222222222214" height="21.538461538461537" as="geometry" />
        </mxCell>
        <mxCell id="TMr_2HQ8tbegMvJpfILP-19" style="edgeStyle=orthogonalEdgeStyle;curved=0;rounded=1;orthogonalLoop=1;jettySize=auto;html=1;exitX=0.5;exitY=0;exitDx=0;exitDy=0;entryX=0.75;entryY=1;entryDx=0;entryDy=0;strokeColor=#82b366;align=center;verticalAlign=middle;fontFamily=Helvetica;fontSize=11;fontColor=default;labelBackgroundColor=default;endArrow=classic;opacity=30;fillColor=#d5e8d4;" edge="1" parent="TMr_2HQ8tbegMvJpfILP-2" source="TMr_2HQ8tbegMvJpfILP-20" target="TMr_2HQ8tbegMvJpfILP-17">
          <mxGeometry relative="1" as="geometry" />
        </mxCell>
        <mxCell id="TMr_2HQ8tbegMvJpfILP-20" value="" style="rounded=1;whiteSpace=wrap;html=1;fillColor=#0050ef;fontColor=#ffffff;strokeColor=#001DBC;opacity=30;" vertex="1" parent="TMr_2HQ8tbegMvJpfILP-2">
          <mxGeometry x="116.11111111111109" y="226.15384615384613" width="42.222222222222214" height="21.538461538461537" as="geometry" />
        </mxCell>
        <mxCell id="TMr_2HQ8tbegMvJpfILP-21" style="edgeStyle=orthogonalEdgeStyle;rounded=1;orthogonalLoop=1;jettySize=auto;html=1;exitX=0.25;exitY=1;exitDx=0;exitDy=0;entryX=0.5;entryY=0;entryDx=0;entryDy=0;curved=0;opacity=30;fillColor=#d5e8d4;strokeColor=#82b366;" edge="1" parent="TMr_2HQ8tbegMvJpfILP-2" source="TMr_2HQ8tbegMvJpfILP-22" target="TMr_2HQ8tbegMvJpfILP-23">
          <mxGeometry relative="1" as="geometry" />
        </mxCell>
        <mxCell id="TMr_2HQ8tbegMvJpfILP-22" value="" style="rounded=1;whiteSpace=wrap;html=1;fillColor=#0050ef;fontColor=#ffffff;strokeColor=#001DBC;opacity=30;" vertex="1" parent="TMr_2HQ8tbegMvJpfILP-2">
          <mxGeometry x="263.88888888888886" y="161.53846153846152" width="42.222222222222214" height="21.538461538461537" as="geometry" />
        </mxCell>
        <mxCell id="TMr_2HQ8tbegMvJpfILP-23" value="" style="rounded=1;whiteSpace=wrap;html=1;fillColor=#0050ef;fontColor=#ffffff;strokeColor=#001DBC;opacity=30;" vertex="1" parent="TMr_2HQ8tbegMvJpfILP-2">
          <mxGeometry x="221.66666666666663" y="226.15384615384613" width="42.222222222222214" height="21.538461538461537" as="geometry" />
        </mxCell>
        <mxCell id="TMr_2HQ8tbegMvJpfILP-24" style="edgeStyle=orthogonalEdgeStyle;curved=0;rounded=1;orthogonalLoop=1;jettySize=auto;html=1;exitX=0.5;exitY=0;exitDx=0;exitDy=0;entryX=0.75;entryY=1;entryDx=0;entryDy=0;strokeColor=#82b366;align=center;verticalAlign=middle;fontFamily=Helvetica;fontSize=11;fontColor=default;labelBackgroundColor=default;endArrow=classic;fillColor=#d5e8d4;opacity=30;" edge="1" parent="TMr_2HQ8tbegMvJpfILP-2" source="TMr_2HQ8tbegMvJpfILP-25" target="TMr_2HQ8tbegMvJpfILP-22">
          <mxGeometry relative="1" as="geometry" />
        </mxCell>
        <mxCell id="TMr_2HQ8tbegMvJpfILP-25" value="" style="rounded=1;whiteSpace=wrap;html=1;fillColor=#0050ef;fontColor=#ffffff;strokeColor=#001DBC;opacity=30;" vertex="1" parent="TMr_2HQ8tbegMvJpfILP-2">
          <mxGeometry x="306.1111111111111" y="226.15384615384613" width="42.222222222222214" height="21.538461538461537" as="geometry" />
        </mxCell>
        <mxCell id="TMr_2HQ8tbegMvJpfILP-26" value="" style="rounded=1;whiteSpace=wrap;html=1;fontFamily=Helvetica;fontSize=11;labelBackgroundColor=default;opacity=30;arcSize=0;" vertex="1" parent="TMr_2HQ8tbegMvJpfILP-2">
          <mxGeometry x="27.000000000000014" y="231.91999999999996" width="10" height="10" as="geometry" />
        </mxCell>
        <mxCell id="TMr_2HQ8tbegMvJpfILP-27" value="" style="rounded=1;whiteSpace=wrap;html=1;fontFamily=Helvetica;fontSize=11;labelBackgroundColor=default;opacity=30;arcSize=0;" vertex="1" parent="TMr_2HQ8tbegMvJpfILP-2">
          <mxGeometry x="37.000000000000014" y="231.91999999999996" width="10" height="10" as="geometry" />
        </mxCell>
        <mxCell id="TMr_2HQ8tbegMvJpfILP-28" value="" style="rounded=1;whiteSpace=wrap;html=1;fontFamily=Helvetica;fontSize=11;labelBackgroundColor=default;opacity=30;arcSize=0;" vertex="1" parent="TMr_2HQ8tbegMvJpfILP-2">
          <mxGeometry x="110" y="231.91999999999996" width="10" height="10" as="geometry" />
        </mxCell>
        <mxCell id="TMr_2HQ8tbegMvJpfILP-29" style="edgeStyle=orthogonalEdgeStyle;curved=0;rounded=1;orthogonalLoop=1;jettySize=auto;html=1;exitX=1;exitY=0.5;exitDx=0;exitDy=0;strokeColor=#82b366;align=center;verticalAlign=middle;fontFamily=Helvetica;fontSize=11;fontColor=default;labelBackgroundColor=default;endArrow=classic;entryX=0;entryY=0.5;entryDx=0;entryDy=0;opacity=30;fillColor=#d5e8d4;" edge="1" parent="TMr_2HQ8tbegMvJpfILP-2" source="TMr_2HQ8tbegMvJpfILP-30" target="TMr_2HQ8tbegMvJpfILP-28">
          <mxGeometry relative="1" as="geometry" />
        </mxCell>
        <mxCell id="TMr_2HQ8tbegMvJpfILP-30" value="" style="rounded=1;whiteSpace=wrap;html=1;fontFamily=Helvetica;fontSize=11;labelBackgroundColor=default;fillColor=#1ba1e2;strokeColor=#006EAF;opacity=50;arcSize=0;fontColor=#ffffff;" vertex="1" parent="TMr_2HQ8tbegMvJpfILP-2">
          <mxGeometry x="67.99999999999999" y="231.91999999999996" width="10" height="10" as="geometry" />
        </mxCell>
        <mxCell id="TMr_2HQ8tbegMvJpfILP-31" value="" style="rounded=1;whiteSpace=wrap;html=1;fontFamily=Helvetica;fontSize=11;labelBackgroundColor=default;fillColor=#1ba1e2;strokeColor=#006EAF;opacity=50;arcSize=0;fontColor=#ffffff;" vertex="1" parent="TMr_2HQ8tbegMvJpfILP-2">
          <mxGeometry x="143" y="231.91999999999996" width="10" height="10" as="geometry" />
        </mxCell>
        <mxCell id="TMr_2HQ8tbegMvJpfILP-32" value="" style="rounded=1;whiteSpace=wrap;html=1;fontFamily=Helvetica;fontSize=11;labelBackgroundColor=default;fillColor=#1ba1e2;strokeColor=#006EAF;opacity=50;arcSize=0;fontColor=#ffffff;" vertex="1" parent="TMr_2HQ8tbegMvJpfILP-2">
          <mxGeometry x="154" y="231.91999999999996" width="10" height="10" as="geometry" />
        </mxCell>
        <mxCell id="TMr_2HQ8tbegMvJpfILP-33" value="" style="rounded=1;whiteSpace=wrap;html=1;fontFamily=Helvetica;fontSize=11;labelBackgroundColor=default;fillColor=#1ba1e2;strokeColor=#006EAF;opacity=50;arcSize=0;fontColor=#ffffff;" vertex="1" parent="TMr_2HQ8tbegMvJpfILP-2">
          <mxGeometry x="110" y="167.30999999999995" width="10" height="10" as="geometry" />
        </mxCell>
        <mxCell id="TMr_2HQ8tbegMvJpfILP-34" value="" style="rounded=1;whiteSpace=wrap;html=1;fontFamily=Helvetica;fontSize=11;labelBackgroundColor=default;fillColor=#1ba1e2;strokeColor=#006EAF;opacity=50;arcSize=0;fontColor=#ffffff;" vertex="1" parent="TMr_2HQ8tbegMvJpfILP-2">
          <mxGeometry x="152" y="102.68999999999994" width="10" height="10" as="geometry" />
        </mxCell>
        <mxCell id="TMr_2HQ8tbegMvJpfILP-35" value="" style="rounded=1;whiteSpace=wrap;html=1;fontFamily=Helvetica;fontSize=11;labelBackgroundColor=default;fillColor=#1ba1e2;strokeColor=#006EAF;opacity=50;arcSize=0;fontColor=#ffffff;" vertex="1" parent="TMr_2HQ8tbegMvJpfILP-2">
          <mxGeometry x="258" y="101.99999999999994" width="10" height="10" as="geometry" />
        </mxCell>
        <mxCell id="TMr_2HQ8tbegMvJpfILP-36" value="" style="rounded=1;whiteSpace=wrap;html=1;fontFamily=Helvetica;fontSize=11;labelBackgroundColor=default;fillColor=#1ba1e2;strokeColor=#006EAF;opacity=50;arcSize=0;fontColor=#ffffff;" vertex="1" parent="TMr_2HQ8tbegMvJpfILP-2">
          <mxGeometry x="300" y="167.30999999999995" width="10" height="10" as="geometry" />
        </mxCell>
        <mxCell id="TMr_2HQ8tbegMvJpfILP-37" value="" style="rounded=1;whiteSpace=wrap;html=1;fontFamily=Helvetica;fontSize=11;labelBackgroundColor=default;fillColor=#1ba1e2;strokeColor=#006EAF;opacity=50;arcSize=0;fontColor=#ffffff;" vertex="1" parent="TMr_2HQ8tbegMvJpfILP-2">
          <mxGeometry x="259" y="231.99999999999994" width="10" height="10" as="geometry" />
        </mxCell>
        <mxCell id="TMr_2HQ8tbegMvJpfILP-38" value="" style="rounded=1;whiteSpace=wrap;html=1;fontFamily=Helvetica;fontSize=11;labelBackgroundColor=default;fillColor=#1ba1e2;strokeColor=#006EAF;opacity=50;arcSize=0;fontColor=#ffffff;" vertex="1" parent="TMr_2HQ8tbegMvJpfILP-2">
          <mxGeometry x="343" y="231.99999999999994" width="10" height="10" as="geometry" />
        </mxCell>
        <mxCell id="TMr_2HQ8tbegMvJpfILP-39" value="" style="rounded=1;whiteSpace=wrap;html=1;fontFamily=Helvetica;fontSize=11;labelBackgroundColor=default;fillColor=#1ba1e2;strokeColor=#006EAF;opacity=50;arcSize=0;fontColor=#ffffff;" vertex="1" parent="TMr_2HQ8tbegMvJpfILP-2">
          <mxGeometry x="206" y="38.079999999999956" width="10" height="10" as="geometry" />
        </mxCell>
        <mxCell id="TMr_2HQ8tbegMvJpfILP-40" value="" style="rounded=1;whiteSpace=wrap;html=1;fontFamily=Helvetica;fontSize=11;labelBackgroundColor=default;opacity=30;arcSize=0;" vertex="1" parent="TMr_2HQ8tbegMvJpfILP-2">
          <mxGeometry x="69" y="167.99999999999994" width="10" height="10" as="geometry" />
        </mxCell>
        <mxCell id="TMr_2HQ8tbegMvJpfILP-41" value="" style="rounded=1;whiteSpace=wrap;html=1;fontFamily=Helvetica;fontSize=11;labelBackgroundColor=default;opacity=30;arcSize=0;" vertex="1" parent="TMr_2HQ8tbegMvJpfILP-2">
          <mxGeometry x="111" y="102.68999999999994" width="10" height="10" as="geometry" />
        </mxCell>
        <mxCell id="TMr_2HQ8tbegMvJpfILP-42" value="" style="rounded=1;whiteSpace=wrap;html=1;fontFamily=Helvetica;fontSize=11;labelBackgroundColor=default;opacity=30;arcSize=0;" vertex="1" parent="TMr_2HQ8tbegMvJpfILP-2">
          <mxGeometry x="164" y="38.07999999999994" width="10" height="10" as="geometry" />
        </mxCell>
        <mxCell id="TMr_2HQ8tbegMvJpfILP-43" value="" style="rounded=1;whiteSpace=wrap;html=1;fontFamily=Helvetica;fontSize=11;labelBackgroundColor=default;opacity=30;arcSize=0;" vertex="1" parent="TMr_2HQ8tbegMvJpfILP-2">
          <mxGeometry x="216" y="102.68999999999994" width="10" height="10" as="geometry" />
        </mxCell>
        <mxCell id="TMr_2HQ8tbegMvJpfILP-44" value="" style="rounded=1;whiteSpace=wrap;html=1;fontFamily=Helvetica;fontSize=11;labelBackgroundColor=default;opacity=30;arcSize=0;" vertex="1" parent="TMr_2HQ8tbegMvJpfILP-2">
          <mxGeometry x="259" y="167.30999999999995" width="10" height="10" as="geometry" />
        </mxCell>
        <mxCell id="TMr_2HQ8tbegMvJpfILP-45" value="" style="rounded=1;whiteSpace=wrap;html=1;fontFamily=Helvetica;fontSize=11;labelBackgroundColor=default;opacity=30;arcSize=0;" vertex="1" parent="TMr_2HQ8tbegMvJpfILP-2">
          <mxGeometry x="216" y="231.99999999999994" width="10" height="10" as="geometry" />
        </mxCell>
        <mxCell id="TMr_2HQ8tbegMvJpfILP-46" value="" style="rounded=1;whiteSpace=wrap;html=1;fontFamily=Helvetica;fontSize=11;labelBackgroundColor=default;opacity=30;arcSize=0;" vertex="1" parent="TMr_2HQ8tbegMvJpfILP-2">
          <mxGeometry x="301" y="231.91999999999996" width="10" height="10" as="geometry" />
        </mxCell>
        <mxCell id="TMr_2HQ8tbegMvJpfILP-47" style="edgeStyle=orthogonalEdgeStyle;curved=0;rounded=1;orthogonalLoop=1;jettySize=auto;html=1;exitX=0.75;exitY=0;exitDx=0;exitDy=0;entryX=0.75;entryY=1;entryDx=0;entryDy=0;strokeColor=#82b366;align=center;verticalAlign=middle;fontFamily=Helvetica;fontSize=11;fontColor=default;labelBackgroundColor=default;endArrow=classic;opacity=30;fillColor=#d5e8d4;" edge="1" parent="TMr_2HQ8tbegMvJpfILP-2" source="TMr_2HQ8tbegMvJpfILP-22" target="TMr_2HQ8tbegMvJpfILP-14">
          <mxGeometry relative="1" as="geometry">
            <mxPoint x="233" y="119" as="sourcePoint" />
            <mxPoint x="275" y="163" as="targetPoint" />
          </mxGeometry>
        </mxCell>
        <mxCell id="TMr_2HQ8tbegMvJpfILP-48" style="edgeStyle=orthogonalEdgeStyle;curved=0;rounded=1;orthogonalLoop=1;jettySize=auto;html=1;exitX=0.097;exitY=0.2;exitDx=0;exitDy=0;entryX=0;entryY=0.5;entryDx=0;entryDy=0;strokeColor=#82b366;align=center;verticalAlign=middle;fontFamily=Helvetica;fontSize=11;fontColor=default;labelBackgroundColor=default;endArrow=classic;opacity=30;fillColor=#d5e8d4;exitPerimeter=0;" edge="1" parent="TMr_2HQ8tbegMvJpfILP-2" source="TMr_2HQ8tbegMvJpfILP-5" target="TMr_2HQ8tbegMvJpfILP-42">
          <mxGeometry relative="1" as="geometry">
            <mxPoint x="234" y="120" as="sourcePoint" />
            <mxPoint x="276" y="164" as="targetPoint" />
            <Array as="points">
              <mxPoint x="48" y="140" />
              <mxPoint x="48" y="62" />
              <mxPoint x="110" y="62" />
              <mxPoint x="110" y="43" />
            </Array>
          </mxGeometry>
        </mxCell>
        <mxCell id="TMr_2HQ8tbegMvJpfILP-49" style="edgeStyle=orthogonalEdgeStyle;curved=0;rounded=1;orthogonalLoop=1;jettySize=auto;html=1;exitX=1;exitY=0.5;exitDx=0;exitDy=0;strokeColor=#82b366;align=center;verticalAlign=middle;fontFamily=Helvetica;fontSize=11;fontColor=default;labelBackgroundColor=default;endArrow=classic;fillColor=#d5e8d4;opacity=30;entryX=0.885;entryY=0.2;entryDx=0;entryDy=0;entryPerimeter=0;" edge="1" parent="TMr_2HQ8tbegMvJpfILP-2" source="TMr_2HQ8tbegMvJpfILP-39" target="TMr_2HQ8tbegMvJpfILP-4">
          <mxGeometry relative="1" as="geometry">
            <mxPoint x="352" y="138" as="targetPoint" />
            <Array as="points">
              <mxPoint x="273" y="43" />
              <mxPoint x="273" y="61" />
              <mxPoint x="327" y="61" />
              <mxPoint x="327" y="140" />
            </Array>
          </mxGeometry>
        </mxCell>
        <mxCell id="TMr_2HQ8tbegMvJpfILP-50" value="" style="endArrow=none;html=1;rounded=1;strokeColor=default;align=center;verticalAlign=middle;fontFamily=Helvetica;fontSize=11;fontColor=default;labelBackgroundColor=default;edgeStyle=orthogonalEdgeStyle;curved=0;" edge="1" parent="TMr_2HQ8tbegMvJpfILP-1">
          <mxGeometry width="50" height="50" relative="1" as="geometry">
            <mxPoint x="48" y="164" as="sourcePoint" />
            <mxPoint x="168" y="164" as="targetPoint" />
          </mxGeometry>
        </mxCell>
        <mxCell id="TMr_2HQ8tbegMvJpfILP-51" value="" style="endArrow=none;html=1;rounded=1;strokeColor=default;align=center;verticalAlign=middle;fontFamily=Helvetica;fontSize=11;fontColor=default;labelBackgroundColor=default;edgeStyle=orthogonalEdgeStyle;curved=0;" edge="1" parent="TMr_2HQ8tbegMvJpfILP-1">
          <mxGeometry width="50" height="50" relative="1" as="geometry">
            <mxPoint x="48" y="184" as="sourcePoint" />
            <mxPoint x="168" y="184" as="targetPoint" />
          </mxGeometry>
        </mxCell>
        <mxCell id="TMr_2HQ8tbegMvJpfILP-52" value="" style="endArrow=none;html=1;strokeWidth=2;rounded=1;strokeColor=default;align=center;verticalAlign=middle;fontFamily=Helvetica;fontSize=11;fontColor=default;labelBackgroundColor=default;edgeStyle=orthogonalEdgeStyle;curved=0;opacity=30;" edge="1" parent="TMr_2HQ8tbegMvJpfILP-1">
          <mxGeometry width="50" height="50" relative="1" as="geometry">
            <mxPoint x="68" y="184" as="sourcePoint" />
            <mxPoint x="68" y="164" as="targetPoint" />
          </mxGeometry>
        </mxCell>
        <mxCell id="TMr_2HQ8tbegMvJpfILP-53" value="" style="endArrow=none;html=1;strokeWidth=2;rounded=1;strokeColor=default;align=center;verticalAlign=middle;fontFamily=Helvetica;fontSize=11;fontColor=default;labelBackgroundColor=default;edgeStyle=orthogonalEdgeStyle;curved=0;opacity=30;" edge="1" parent="TMr_2HQ8tbegMvJpfILP-1">
          <mxGeometry width="50" height="50" relative="1" as="geometry">
            <mxPoint x="88" y="184" as="sourcePoint" />
            <mxPoint x="88" y="164" as="targetPoint" />
          </mxGeometry>
        </mxCell>
        <mxCell id="TMr_2HQ8tbegMvJpfILP-54" value="" style="endArrow=none;html=1;strokeWidth=2;rounded=1;strokeColor=default;align=center;verticalAlign=middle;fontFamily=Helvetica;fontSize=11;fontColor=default;labelBackgroundColor=default;edgeStyle=orthogonalEdgeStyle;curved=0;opacity=30;" edge="1" parent="TMr_2HQ8tbegMvJpfILP-1">
          <mxGeometry width="50" height="50" relative="1" as="geometry">
            <mxPoint x="108" y="184" as="sourcePoint" />
            <mxPoint x="108" y="164" as="targetPoint" />
          </mxGeometry>
        </mxCell>
        <mxCell id="TMr_2HQ8tbegMvJpfILP-55" value="" style="endArrow=none;html=1;strokeWidth=2;rounded=1;strokeColor=default;align=center;verticalAlign=middle;fontFamily=Helvetica;fontSize=11;fontColor=default;labelBackgroundColor=default;edgeStyle=orthogonalEdgeStyle;curved=0;opacity=30;" edge="1" parent="TMr_2HQ8tbegMvJpfILP-1">
          <mxGeometry width="50" height="50" relative="1" as="geometry">
            <mxPoint x="128" y="184" as="sourcePoint" />
            <mxPoint x="128" y="164" as="targetPoint" />
          </mxGeometry>
        </mxCell>
        <mxCell id="TMr_2HQ8tbegMvJpfILP-56" value="" style="endArrow=none;html=1;strokeWidth=2;rounded=1;strokeColor=default;align=center;verticalAlign=middle;fontFamily=Helvetica;fontSize=11;fontColor=default;labelBackgroundColor=default;edgeStyle=orthogonalEdgeStyle;curved=0;opacity=30;" edge="1" parent="TMr_2HQ8tbegMvJpfILP-1">
          <mxGeometry width="50" height="50" relative="1" as="geometry">
            <mxPoint x="148" y="184" as="sourcePoint" />
            <mxPoint x="148" y="164" as="targetPoint" />
          </mxGeometry>
        </mxCell>
        <mxCell id="TMr_2HQ8tbegMvJpfILP-57" value="" style="endArrow=none;html=1;rounded=1;strokeColor=default;align=center;verticalAlign=middle;fontFamily=Helvetica;fontSize=11;fontColor=default;labelBackgroundColor=default;edgeStyle=orthogonalEdgeStyle;curved=0;" edge="1" parent="TMr_2HQ8tbegMvJpfILP-1">
          <mxGeometry width="50" height="50" relative="1" as="geometry">
            <mxPoint x="488" y="165" as="sourcePoint" />
            <mxPoint x="608" y="165" as="targetPoint" />
          </mxGeometry>
        </mxCell>
        <mxCell id="TMr_2HQ8tbegMvJpfILP-58" value="" style="endArrow=none;html=1;rounded=1;strokeColor=default;align=center;verticalAlign=middle;fontFamily=Helvetica;fontSize=11;fontColor=default;labelBackgroundColor=default;edgeStyle=orthogonalEdgeStyle;curved=0;" edge="1" parent="TMr_2HQ8tbegMvJpfILP-1">
          <mxGeometry width="50" height="50" relative="1" as="geometry">
            <mxPoint x="488" y="185" as="sourcePoint" />
            <mxPoint x="608" y="185" as="targetPoint" />
          </mxGeometry>
        </mxCell>
        <mxCell id="TMr_2HQ8tbegMvJpfILP-59" value="" style="endArrow=none;html=1;strokeWidth=2;rounded=1;strokeColor=default;align=center;verticalAlign=middle;fontFamily=Helvetica;fontSize=11;fontColor=default;labelBackgroundColor=default;edgeStyle=orthogonalEdgeStyle;curved=0;opacity=30;" edge="1" parent="TMr_2HQ8tbegMvJpfILP-1">
          <mxGeometry width="50" height="50" relative="1" as="geometry">
            <mxPoint x="508" y="185" as="sourcePoint" />
            <mxPoint x="508" y="165" as="targetPoint" />
          </mxGeometry>
        </mxCell>
        <mxCell id="TMr_2HQ8tbegMvJpfILP-60" value="" style="endArrow=none;html=1;strokeWidth=2;rounded=1;strokeColor=default;align=center;verticalAlign=middle;fontFamily=Helvetica;fontSize=11;fontColor=default;labelBackgroundColor=default;edgeStyle=orthogonalEdgeStyle;curved=0;opacity=30;" edge="1" parent="TMr_2HQ8tbegMvJpfILP-1">
          <mxGeometry width="50" height="50" relative="1" as="geometry">
            <mxPoint x="528" y="185" as="sourcePoint" />
            <mxPoint x="528" y="165" as="targetPoint" />
          </mxGeometry>
        </mxCell>
        <mxCell id="TMr_2HQ8tbegMvJpfILP-61" value="" style="endArrow=none;html=1;strokeWidth=2;rounded=1;strokeColor=default;align=center;verticalAlign=middle;fontFamily=Helvetica;fontSize=11;fontColor=default;labelBackgroundColor=default;edgeStyle=orthogonalEdgeStyle;curved=0;opacity=30;" edge="1" parent="TMr_2HQ8tbegMvJpfILP-1">
          <mxGeometry width="50" height="50" relative="1" as="geometry">
            <mxPoint x="548" y="185" as="sourcePoint" />
            <mxPoint x="548" y="165" as="targetPoint" />
          </mxGeometry>
        </mxCell>
        <mxCell id="TMr_2HQ8tbegMvJpfILP-62" value="" style="endArrow=none;html=1;strokeWidth=2;rounded=1;strokeColor=default;align=center;verticalAlign=middle;fontFamily=Helvetica;fontSize=11;fontColor=default;labelBackgroundColor=default;edgeStyle=orthogonalEdgeStyle;curved=0;opacity=30;" edge="1" parent="TMr_2HQ8tbegMvJpfILP-1">
          <mxGeometry width="50" height="50" relative="1" as="geometry">
            <mxPoint x="568" y="185" as="sourcePoint" />
            <mxPoint x="568" y="165" as="targetPoint" />
          </mxGeometry>
        </mxCell>
        <mxCell id="yOukWz8Smx9vNW0O3b8W-0" value="code in host language" style="ellipse;shape=cloud;whiteSpace=wrap;html=1;fontFamily=Helvetica;fontSize=11;fontColor=default;labelBackgroundColor=default;" vertex="1" parent="TMr_2HQ8tbegMvJpfILP-1">
          <mxGeometry x="672" y="136" width="120" height="80" as="geometry" />
        </mxCell>
        <mxCell id="POrnnwG85PGgkLQsZInu-2" value="" style="endArrow=classic;html=1;rounded=1;strokeColor=default;align=center;verticalAlign=middle;fontFamily=Helvetica;fontSize=11;fontColor=default;labelBackgroundColor=default;edgeStyle=orthogonalEdgeStyle;curved=0;" edge="1" parent="TMr_2HQ8tbegMvJpfILP-1" target="yOukWz8Smx9vNW0O3b8W-0">
          <mxGeometry width="50" height="50" relative="1" as="geometry">
            <mxPoint x="607" y="176" as="sourcePoint" />
            <mxPoint x="449" y="334" as="targetPoint" />
          </mxGeometry>
        </mxCell>
        <mxCell id="POrnnwG85PGgkLQsZInu-3" value="" style="rounded=1;whiteSpace=wrap;html=1;fontFamily=Helvetica;fontSize=11;labelBackgroundColor=default;opacity=80;fillColor=#fff2cc;strokeColor=#d6b656;" vertex="1" parent="TMr_2HQ8tbegMvJpfILP-1">
          <mxGeometry x="547" y="165" width="20" height="20" as="geometry" />
        </mxCell>
        <mxCell id="POrnnwG85PGgkLQsZInu-0" value="" style="rounded=1;whiteSpace=wrap;html=1;fontFamily=Helvetica;fontSize=11;labelBackgroundColor=default;opacity=80;fillColor=#fff2cc;strokeColor=#d6b656;" vertex="1" parent="TMr_2HQ8tbegMvJpfILP-1">
          <mxGeometry x="567" y="165" width="20" height="20" as="geometry" />
        </mxCell>
      </root>
    </mxGraphModel>
  </diagram>
</mxfile>
